<svg xmlns="http://www.w3.org/2000/svg"><defs><font horiz-adv-x="630"><font-face ascent="800" bbox="-377 -250 1013.97 1060" cap-height="720" descent="-200" panose-1="0 0 5 0 0 0 0 0 0 0" slope="-12" underline-position="-200" underline-thickness="50" unicode-range="U+0020-FB02" x-height="526"/><missing-glyph d="M-116 0l153 720h538l-153-720h-538zM181 217q7 0 13 1.5t8 3.5l3 1q9 40 30 68.5t46.5 47l51 37t47.5 49.5 31 75q14 62-19.5 97.5t-106.5 35.5q-34 0-66.5-6.5t-48.5-13.5l-15-7q-10-26 9-42 41 20 103 20 101 0 84-87-8-35-27-60t-42-42-46.5-35.5-44.5-53-32-83.5q7-6 22-6zM152 81l34 4 12 58q-10 4-32 4l-33-4-12-58q9-4 31-4z" horiz-adv-x="618"/><glyph d="M385 756q48 0 94-7.5t68-14.5l22-8q-6-32-30-53-66 24-160 24-65 0-96.5-24t-42.5-76l-15-71h269q28 0 38-4l-110-517q-13-5-37-5-12 0-20.5 1t-11.5 3l-3 1 99 464h-236l-99-464q-13-5-37-5-11 0-20 1t-12 3l-3 1 99 464h-64q-2 11 2 29l10 28h64l14 66q17 81 69 122.5t149 41.5z" glyph-name="fi" horiz-adv-x="569" unicode="&#x66;&#x69;"/><glyph d="M381 756q45 0 93.5-8.5t75.5-17.5l26-8-153-717q-13-5-37-5-12 0-20.5 1t-11.5 3l-3 1 144 677q-51 15-114 15-64 0-96-24.5t-43-75.5l-15-71h111q0-19-2-28-3-12-10-29h-111l-100-464q-13-5-37-5-11 0-20 1t-12 3l-3 1 100 464h-65q0 20 2 29 5 20 10 28h65l14 66q17 81 67 122.5t145 41.5z" glyph-name="fl" horiz-adv-x="572" unicode="&#x66;&#x6c;"/><glyph d="M-116 0l153 720h538l-153-720h-538zM181 217q7 0 13 1.5t8 3.5l3 1q9 40 30 68.5t46.5 47l51 37t47.5 49.5 31 75q14 62-19.5 97.5t-106.5 35.5q-34 0-66.5-6.5t-48.5-13.5l-15-7q-10-26 9-42 41 20 103 20 101 0 84-87-8-35-27-60t-42-42-46.5-35.5-44.5-53-32-83.5q7-6 22-6zM152 81l34 4 12 58q-10 4-32 4l-33-4-12-58q9-4 31-4z" glyph-name=".notdef" horiz-adv-x="618"/><glyph glyph-name=".null" horiz-adv-x="0"/><glyph glyph-name="nonmarkingreturn" horiz-adv-x="333"/><glyph glyph-name="space" horiz-adv-x="243" unicode="&#x20;"/><glyph d="M101 170q-8 0-14.5 1.5t-8.5 2.5l-3 2 103 539q9 5 40 5 13 0 22.5-1t12.5-3l3-1-127-539q-10-6-28-6zM65 0q-12 0-21.5 1t-13.5 3l-3 1 16 73q12 5 40 5 12 0 21.5-1.5t13.5-2.5l3-1-16-73q-13-5-40-5z" glyph-name="exclam" horiz-adv-x="260" unicode="&#x21;"/><glyph d="M142 514l-22 4 29 197q12 5 37 5 11 0 20-1t12-3l3-1-55-197q-8-4-24-4zM272 514l-22 4 29 197q11 5 37 5 11 0 19.5-1t12.5-3l3-1-55-197q-9-4-24-4z" glyph-name="quotedbl" horiz-adv-x="330" unicode="&#x22;"/><glyph d="M646 481q2-17-1-28-3-17-11-31h-106l-114-230h87q0-24-1-29-5-19-12-30h-103l-63-127q-21-6-34-6-7 0-31 6l63 127h-154l-63-127q-21-6-34-6-9 0-30 6l63 127h-94q0 24 1 29 5 23 12 30h110l114 230h-91q-2 11 1 30t11 29h108l67 136q17 6 33 6 19 0 31-6l-67-136h155l67 136q16 6 33 6 19 0 31-6l-67-136h89zM349 192l114 230h-154l-114-230h154z" glyph-name="numbersign" horiz-adv-x="655" unicode="&#x23;"/><glyph d="M189-129l-33 5 33 126q-52 1-98.5 10t-66.5 18l-21 8q0 11 8 29 12 22 21 26 85-27 179-27 172 0 196 114 8 37-7 62.5t-45.5 39-68.5 23.5-75.5 22-67 29.5-43 51-3.5 81.5q17 77 77 123.5t157 53.5l18 118q13 5 34 5l33-5-33-116q45-1 85-7t58-11l18-6q-9-26-11-30-10-19-22-25-60 20-146 20-169 0-193-113-8-40 14.5-66t62-37 85.5-26 84.5-32 58-55.5 7.5-95.5q-17-80-79-127t-163-54l-19-127q-11-5-34-5z" glyph-name="dollar" horiz-adv-x="557" unicode="&#x24;"/><glyph d="M117-10l-30 5 537 702q10 5 32 5 9 0 16.5-1t10.5-3l3-1-536-702q-12-5-33-5zM187 345q-133 0-96 173t170 173 96-173-170-173zM197 393q37 0 61.5 27.5t39.5 97.5q13 74 1 100t-48 26q-38 0-62.5-28t-39.5-98q-13-74-1.5-99.5t49.5-25.5zM506-10q-133 0-96 173t169 173q133 0 97-173-37-173-170-173zM516 38q37 0 61.5 27.5t39.5 97.5q12 73 0 99.5t-48 26.5q-37 0-62-28t-39-98q-13-74-1-99.5t49-25.5z" glyph-name="percent" horiz-adv-x="751" unicode="&#x25;"/><glyph d="M169-10q-80 0-126 43t-28 128q8 39 31.5 74.5t54 60.5 56 41 51.5 28q-20 82-3 156 16 78 66.5 123.5t130.5 45.5q66 0 97.5-34.5t20.5-87.5q-15-71-72.5-119t-162.5-100q36-108 128-192 50 50 91 128 40 3 52-24-37-71-106-137 50-39 108-65-7-40-44-60-69 31-123 74-18-16-42.5-32t-76-33.5-103.5-17.5zM272 396q79 39 122.5 76.5t54.5 88.5q8 36-8.5 56.5t-54.5 20.5q-42 0-73-29t-42-84q-14-64 1-129zM193 50q80 0 162 56-94 91-134 212-115-60-133-148-12-55 16.5-87.5t88.5-32.5z" glyph-name="ampersand" horiz-adv-x="634" unicode="&#x26;"/><glyph d="M142 514l-22 4 29 197q11 5 37 5 11 0 19.5-1t12.5-3l3-1-55-197q-8-4-24-4z" glyph-name="quotesingle" horiz-adv-x="200" unicode="&#x27;"/><glyph d="M100-171q-4 9-10.5 24.5t-20.5 67-21.5 105.5-6 134.5 18.5 159.5 48.5 159 65 137 64.5 103 50 69l20 23q14 1 29-8 7-4 12-9.5t6-9.5l1-3q-7-7-18.5-21t-43-60.5-59-96.5-57-127.5-46.5-155.5q-26-142-19.5-244t27.5-160l20-57q-9-13-28-22-8-4-16-6t-12-2h-4z" glyph-name="parenleft" horiz-adv-x="287" unicode="&#x28;"/><glyph d="M-14-171q-15-1-30 8-7 4-11.5 9.5t-5.5 9.5l-1 3q7 7 18.5 21t43 60.5 58.5 96.5 57 127.5 47 155.5q25 142 19 244t-27 160l-20 57q9 12 28 22 8 4 16 6t12 2h4q4-8 10.5-24t20-67 21-105 6-135-18.5-160-48.5-158.5-64.5-137-64-103.5-50-69z" glyph-name="parenright" horiz-adv-x="287" unicode="&#x29;"/><glyph d="M157 487q-18 6-30 23l65 71-74 27q6 26 22 40l75-27 18 84q22 8 42 0l-18-84 87 27q10-14 3-40l-86-26 37-71q-22-18-41-24l-36 69z" glyph-name="asterisk" horiz-adv-x="344" unicode="&#x2a;"/><glyph d="M189 112l-27 5 31 145h-145q-3 10 1 28 1 8 4 15t5 10l2 3h145l31 146q10 4 28 4l28-4-31-146h146q1-10-2-28l-10-28h-146l-31-145q-11-5-29-5z" glyph-name="plus" horiz-adv-x="461" unicode="&#x2b;"/><glyph d="M5-112l-24 19q38 33 55 93l-25 5 16 73q15 5 41 5l40-5-11-50q-9-41-32-76t-41-50z" glyph-name="comma" horiz-adv-x="226" unicode="&#x2c;"/><glyph d="M71 262q-3 10 1 28 1 8 4 15t5 10l2 3h196q2-10-1-28l-11-28h-196z" glyph-name="hyphen" horiz-adv-x="357" unicode="&#x2d;"/><glyph d="M50 0q-12 0-22 1t-14 3l-4 1 16 73q14 5 42 5l40-5-16-73q-15-5-42-5z" glyph-name="period" horiz-adv-x="222" unicode="&#x2e;"/><glyph d="M-15-47q-11 0-19.5 1.5t-11.5 3.5l-4 1 503 785q14 6 37 6 11 0 20-1.5t12-2.5l4-2-503-785q-14-6-38-6z" glyph-name="slash" horiz-adv-x="457" unicode="&#x2f;"/><glyph d="M240-10q-240 0-163 364 39 179 115 257.5t197 78.5q243 0 165-366-38-180-115-257t-199-77zM253 52q86 0 140 66t87 222q32 160 6.5 224t-111.5 64q-84 0-138-66t-88-222q-31-159-5.5-223.5t109.5-64.5z" glyph-name="zero" horiz-adv-x="617" unicode="&#x30;"/><glyph d="M342 680q11 0 19.5-1.5t12.5-2.5l3-2-142-668q-12-6-38-6-11 0-20 1.5t-13 2.5l-3 2 93 438q17 83 35 134-85-80-206-109-20 25-4 61 131 33 227 144 12 6 36 6z" glyph-name="one" horiz-adv-x="401" unicode="&#x31;"/><glyph d="M346 690q91 0 139-49t29-141q-4-20-10-36.5t-16-32-17-26-24-24.5-25-20.5-32-20.5-33-19-40-21.5-42-22.5q-8-5-32-17t-36-19-33-19.5-33-24-26-27.5-22.5-34.5-13.5-39.5q-2-10-4-30h330q3-10-1-33-3-16-13-33h-396q1 32 8 67t18 63.5 28.5 51.5 32 39.5 40.5 34 40.5 26 46 25.5 43.5 24q102 58 131 84 45 41 57 96 11 52-15.5 85t-103.5 33q-36 0-75-7t-60-14l-22-7q-22 19-10 53 83 36 192 36z" glyph-name="two" horiz-adv-x="529" unicode="&#x32;"/><glyph d="M476 510q-24-117-128-153 110-38 81-180-19-85-86-136t-191-51q-47 0-87.5 8.5t-57.5 17.5l-17 8q5 33 31 54 60-24 139-24 168 0 197 133 29 139-133 139h-62q-6 30 13 60h62q143 0 168 123 26 120-118 120-35 0-70-6t-53-12l-17-6q-24 18-13 52 73 33 173 33t143-49.5 26-130.5z" glyph-name="three" horiz-adv-x="519" unicode="&#x33;"/><glyph d="M517 236q4-10 0-30l-12-29h-96l-37-171q-14-6-36-6-10 0-18.5 1.5t-11.5 2.5l-4 2 37 171h-326q-5 9 0 29 2 9 5 16.5t5 10.5l2 3 416 438q13 6 39 6 11 0 19.5-1.5t11.5-2.5l3-2-93-438h96zM351 236l72 341-321-341h249z" glyph-name="four" horiz-adv-x="575" unicode="&#x34;"/><glyph d="M501 615h-271l-48-226q30 5 70 5 115 0 161-56t25-159q-21-97-92-143t-200-46q-49 0-87.5 7.5t-52.5 14.5l-14 8q4 33 31 54 51-21 128-21 92 0 144.5 33t68.5 105q14 71-18.5 106t-131.5 35q-22 0-47-1.5t-46-4-24-2.5l75 356h342q5-33-13-65z" glyph-name="five" horiz-adv-x="523" unicode="&#x35;"/><glyph d="M497 621q-238-18-332-241 82 36 154 36 91 0 136.5-56t21.5-166q-22-103-91-153.5t-171-50.5q-101 0-145.5 66t-15.5 201q43 203 161.5 307.5t293.5 115.5q8-27-12-59zM297 357q-63 0-156-43-10-40-14-61-44-205 94-205 66 0 116 39.5t66 115.5q17 78-12.5 116t-93.5 38z" glyph-name="six" horiz-adv-x="552" unicode="&#x36;"/><glyph d="M527 680q2-16-3-41-16-67-55-126.5t-86-108-95-101.5-89.5-130-61.5-169q-28-4-35-4-4 0-36 4 20 96 60 175t86 132 91 99 84.5 98 57.5 106h-342q-3 12 1 33 2 10 5.5 18t5.5 11l2 4h410z" glyph-name="seven" horiz-adv-x="493" unicode="&#x37;"/><glyph d="M540 516q-7-33-23-60.5t-39.5-47.5-40.5-31-42-24q122-70 96-198-34-165-270-165-104 0-153.5 54t-32.5 135q8 38 27.5 68.5t50 53.5 48.5 34 49 26q-99 67-75 178 15 74 77.5 112.5t159.5 38.5q93 0 139-49t29-125zM471 523q11 52-18.5 80t-92.5 28q-62 0-104-27t-52-74q-11-51 22.5-83.5t121.5-71.5q106 64 123 148zM418 167q13 56-21 88t-142 82q-130-72-150-169-12-54 21.5-86.5t110.5-32.5q73 0 121.5 32.5t59.5 85.5z" glyph-name="eight" horiz-adv-x="583" unicode="&#x38;"/><glyph d="M348 690q102 0 146.5-66t15.5-201q-44-204-162-308t-295-115q-6 30 13 59 241 24 331 242-66-37-142-37-91 0-140 58t-26 167q44 201 259 201zM436 427q44 205-101 205-65 0-112-39.5t-64-115.5q-17-78 13-116t94-38q44 0 87.5 14t67.5 30z" glyph-name="nine" horiz-adv-x="549" unicode="&#x39;"/><glyph d="M136 395q-12 0-22 1.5t-14 2.5l-4 1 15 73q15 5 43 5 12 0 22-1t14-3l3-1-15-73q-15-5-42-5zM52 0q-12 0-22 1t-14 3l-4 1 16 73q14 5 42 5l40-5-16-73q-15-5-42-5z" glyph-name="colon" horiz-adv-x="234" unicode="&#x3a;"/><glyph d="M142 395q-12 0-22 1.5t-14 2.5l-4 1 15 73q15 5 43 5 12 0 22-1t14-3l3-1-15-73q-15-5-42-5zM13-112l-24 19q38 33 55 93l-26 5 16 73q14 5 42 5l40-5-11-50q-9-41-32-76t-41-50z" glyph-name="semicolon" horiz-adv-x="242" unicode="&#x3b;"/><glyph d="M410 467q4-8-1-28l-11-30-288-120 237-118q3-10-1-30l-11-29-289 145q-2 14 2 33l11 32z" glyph-name="less" horiz-adv-x="457" unicode="&#x3c;"/><glyph d="M93 349q-2 30 12 56h346q2-29-12-56h-346zM56 174q-2 31 12 57h346q2-30-12-57h-346z" glyph-name="equal" horiz-adv-x="515" unicode="&#x3d;"/><glyph d="M403 322q3-12-1-32l-12-33-351-145q-3 10 1 29l11 30 286 118-235 120q-3 10 1 30l11 28z" glyph-name="greater" horiz-adv-x="457" unicode="&#x3e;"/><glyph d="M142 170q-8 0-15 2t-9 4l-3 2q11 52 31.5 91t43.5 60 49 42 48 37.5 40 45 26 66.5q11 52-15 80t-89 28q-34 0-66.5-6t-47.5-12l-15-6q-22 19-11 53 67 33 164 33 90 0 131.5-44t24.5-122q-12-55-39-94t-59-62l-64-46t-58.5-58.5-36.5-85.5q-10-8-30-8zM106 0q-12 0-22 1t-14 3l-4 1 16 73q14 5 42 5l40-5-16-73q-15-5-42-5z" glyph-name="question" horiz-adv-x="429" unicode="&#x3f;"/><glyph d="M358-116q-78 0-141.5 24t-107.5 73-59 123.5 5 174.5q39 183 175 292t313 109q181 0 262-103t44-274q-22-103-79.5-160.5t-139.5-57.5q-90 0-99 67-50-67-143-67-73 0-106 45.5t-11 147.5q41 194 199 194 81 0 108-52l10 48q12 6 33 6 9 0 16.5-1.5t10.5-2.5l2-2-52-248q-19-85 45-85 48 0 88 42t58 126q32 150-35.5 239t-220.5 89q-152 0-265-95t-148-257q-17-90-5.5-155t50.5-107 92.5-61.5 121.5-19.5q145 0 288 80 22-10 17-38-153-94-326-94zM418 133q44 0 76.5 28t43.5 68l20 97q8 40-12.5 69t-65.5 29q-52 0-87.5-31t-53.5-115q-17-80 5.5-112.5t73.5-32.5z" glyph-name="at" horiz-adv-x="914" unicode="&#x40;"/><glyph d="M451 714l114-708q-12-6-42-6-20 0-30 6l-32 191h-318l-112-191q-12-6-44-6-26 0-34 6l416 708q14 6 42 6t40-6zM395 641q-12-31-35-69l-182-313h275l-50 313q-5 36-5 69h-3z" glyph-name="A" horiz-adv-x="646" unicode="&#x41;"/><glyph d="M588 513q-13-63-50.5-100.5t-73.5-49.5q36-9 65-54t12-125q-39-184-250-184h-258l153 720h249q97 0 134-59.5t19-147.5zM517 527q28 133-107 133h-163l-56-267h163q134 0 163 134zM469 197q15 71-14 104.5t-106 33.5h-171l-58-275h171q149 0 178 137z" glyph-name="B" horiz-adv-x="628" unicode="&#x42;"/><glyph d="M279-10q-280 0-202 370 79 370 359 370 48 0 88.5-8t56.5-16l16-9q-5-31-35-56-51 25-131 25-102 0-171-69t-105-238q-15-70-16-123t9.5-87 33-55 51.5-29.5 68-8.5 77.5 6 57.5 12l18 7q18-22 11-57-69-34-186-34z" glyph-name="C" horiz-adv-x="559" unicode="&#x43;"/><glyph d="M395 720q145 0 198.5-88.5t11.5-286.5q-41-194-127.5-269.5t-235.5-75.5h-209l153 720h209zM530 360q15 71 16.5 123t-8.5 85.5-34 53.5-54.5 27.5-73.5 7.5h-129l-127-594h129q54 0 95 13t77.5 45.5 63 91.5 45.5 147z" glyph-name="D" horiz-adv-x="662" unicode="&#x44;"/><glyph d="M583 720q3-13 0-30-5-20-13-32h-323l-56-263h273q3-14 0-29-4-18-13-32h-273l-58-272h333q3-14 0-30-5-19-13-32h-407l153 720h397z" glyph-name="E" horiz-adv-x="556" unicode="&#x45;"/><glyph d="M579 720q2-16-1-31-3-16-12-31h-319l-58-273h279q4-11-1-30-4-18-12-32h-279l-68-317q-13-6-38-6-11 0-20 1.5t-12 2.5l-4 2 152 714h393z" glyph-name="F" horiz-adv-x="536" unicode="&#x46;"/><glyph d="M448 730q52 0 96.5-8t63.5-16l18-9q-8-35-35-55-63 24-147 24-106 0-180-69.5t-110-237.5q-16-90-14.5-148.5t27.5-93 61-48.5 86-14q57 0 118 13l55 259h-164q-3 12 1 31 2 9 5.5 17t5.5 11l2 3h235l-78-366q-81-33-203-33-142 0-198 93.5t-17 276.5q39 182 134 276t238 94z" glyph-name="G" horiz-adv-x="627" unicode="&#x47;"/><glyph d="M635 720q11 0 20-1.5t13-2.5l3-2-151-708q-13-6-38-6-12 0-21 1.5t-12 2.5l-3 2 70 330h-338l-70-330q-14-6-38-6-12 0-21 1.5t-12 2.5l-3 2 151 708q14 6 38 6 11 0 20-1.5t13-2.5l3-2-67-312h338l67 312q14 6 38 6z" glyph-name="H" horiz-adv-x="682" unicode="&#x48;"/><glyph d="M70 0q-12 0-21 1.5t-12 2.5l-3 2 151 708q13 6 38 6 11 0 20-1.5t13-2.5l3-2-151-708q-14-6-38-6z" glyph-name="I" horiz-adv-x="270" unicode="&#x49;"/><glyph d="M99-10q-35 0-68.5 7.5t-50.5 14.5l-16 8q6 36 32 57 47-21 104-21 115 0 140 118l115 540q11 6 38 6 11 0 20-1.5t13-2.5l3-2-115-538q-40-186-215-186z" glyph-name="J" horiz-adv-x="435" unicode="&#x4a;"/><glyph d="M655 714l-317-341 195-367q-15-6-44-6l-33 6-180 337h-96l-72-337q-12-6-38-6-11 0-20 1.5t-12 2.5l-4 2 151 708q14 6 39 6 11 0 19.5-1.5t12.5-2.5l3-2-66-309h89l288 309q16 6 46 6 23 0 39-6z" glyph-name="K" horiz-adv-x="611" unicode="&#x4b;"/><glyph d="M434 65q0-23-2-32-3-16-12-33h-387l152 714q14 6 38 6 11 0 20-1.5t13-2.5l3-2-138-649h313z" glyph-name="L" horiz-adv-x="510" unicode="&#x4c;"/><glyph d="M67 0q-10 0-18 1.5t-11 2.5l-4 2 151 708q15 6 43 6 11 0 20.5-1.5t13.5-2.5l5-2 119-369 21-67h3l52 69 273 367q22 6 49 6 13 0 25-1.5t17-2.5l6-2-151-708q-14-6-38-6-11 0-20 1.5t-13 2.5l-3 2 90 424q37 169 48 200h-3q-32-60-99-147l-226-296q-11-4-26-4l-22 4-102 294q-35 102-37 149h-3q0-38-34-195l-91-429q-12-6-35-6z" glyph-name="M" horiz-adv-x="843" unicode="&#x4d;"/><glyph d="M67 0q-10 0-18.5 1.5t-11.5 2.5l-3 2 151 708q17 6 45 6 13 0 24-1.5t15-2.5l4-2 181-503q21-60 37-120h3q6 57 26 153l100 470q12 6 37 6 11 0 19-1.5t10-2.5l3-2-151-708q-14-6-43-6-13 0-24 1.5t-15 2.5l-5 2-183 509q-10 27-18.5 55.5t-12.5 43.5l-4 16h-3q-7-59-28-157l-99-467q-12-6-36-6z" glyph-name="N" horiz-adv-x="700" unicode="&#x4e;"/><glyph d="M274-10q-131 0-182.5 96t-12.5 287q38 187 125.5 272t220.5 85q130 0 183-97.5t13-287.5q-38-187-125.5-271t-221.5-84zM284 52q96 0 161.5 71t100.5 237q36 165 .5 236.5t-131.5 71.5q-95 0-161-71t-102-237q-35-165 .5-236.5t131.5-71.5z" glyph-name="O" horiz-adv-x="677" unicode="&#x4f;"/><glyph d="M439 720q93 0 135-66t21-165q-20-95-85-146t-162-51h-179l-61-286q-13-6-37-6-12 0-21 1.5t-12 2.5l-4 2 152 714h253zM522 505q15 72-11.5 112t-91.5 40h-172l-64-301h172q65 0 109 39.5t58 109.5z" glyph-name="P" horiz-adv-x="602" unicode="&#x50;"/><glyph d="M621 345q-45-217-160-300 45-46 119-66-15-45-55-63-84 30-121 97-57-23-130-23-131 0-182.5 96t-12.5 287q38 187 125.5 272t220.5 85q130 0 183-97.5t13-287.5zM152 360q-35-165 .5-236.5t131.5-71.5 161.5 71 100.5 237q36 165 .5 236.5t-131.5 71.5q-95 0-161-71t-102-237z" glyph-name="Q" horiz-adv-x="677" unicode="&#x51;"/><glyph d="M434 720q94 0 138-62t23-156q-15-72-62-120t-121-64l106-312q-16-6-44-6-12 0-21 1.5t-12 2.5l-3 2-99 304h-3-163l-65-304q-13-6-37-6-12 0-21 1.5t-12 2.5l-4 2 152 714h248zM519 515q14 67-13.5 104.5t-91.5 37.5h-167l-61-284h167q64 0 108 37.5t58 104.5z" glyph-name="R" horiz-adv-x="626" unicode="&#x52;"/><glyph d="M198-10q-126 0-203 40 10 36 33 59 91-31 179-31 178 0 207 133 12 59-19.5 89t-98.5 51q-22 7-33.5 11t-32.5 12.5-32.5 15-28.5 17.5-25.5 21.5-18.5 25.5-13.5 31-3.5 37 5 45q38 183 275 183 98 0 183-27-6-32-32-58-71 21-154 21-86 0-137-34t-64-97q-3-13-3.5-25t3-22 6.5-18.5 12-16 14.5-13 19-12 21-10 24.5-9.5 25-8.5 28-8.5q31-10 54-21t48-29 36.5-39.5 19-54-3.5-71.5q-39-187-290-187z" glyph-name="S" horiz-adv-x="567" unicode="&#x53;"/><glyph d="M588 720q3-12-1-32-2-8-5-16.5t-6-12.5l-2-4h-195l-138-649q-14-6-38-6-12 0-21 1.5t-12 2.5l-3 2 138 649h-200q-3 13 1 33 2 8 5 16t5 12l3 4h469z" glyph-name="T" horiz-adv-x="532" unicode="&#x54;"/><glyph d="M279-10q-113 0-169 65.5t-32 179.5l102 479q14 6 38 6 11 0 20-1.5t12-2.5l4-2-104-490q-17-81 18-126t116-45q80 0 134.5 45t71.5 126l104 490q13 6 37 6 11 0 20-1.5t13-2.5l3-2-102-479q-25-117-100.5-181t-185.5-64z" glyph-name="U" horiz-adv-x="672" unicode="&#x55;"/><glyph d="M247 0l-40 5-98 708q13 7 41 7 9 0 16.5-1.5t10.5-2.5l3-2 75-533q3-24 4.5-47t1.5-34v-12h3q15 40 45 93l303 533q11 6 40 6 11 0 20.5-1.5t13.5-2.5l3-2-401-709q-17-5-41-5z" glyph-name="V" horiz-adv-x="623" unicode="&#x56;"/><glyph d="M208 0q-24 0-40 6l-54 708q13 6 38 6 7 0 13.5-.5t10-1.5 6-2 3.5-2h1l39-511q2-27 2.5-56t-.5-45l-1-15h3q17 54 47 115l256 512q12 6 38 6 12 0 21-1.5t13-2.5l3-2 30-511q2-33 1-58.5t-3-41.5l-2-16h3q18 50 50 115l253 512q17 6 39 6 10 0 18.5-1.5t11.5-2.5l4-2-351-708q-16-6-41-6-11 0-21 1.5t-15 2.5l-5 2-27 506q-2 40-1 66.5t3 40.5l2 14h-3q-9-43-48-121l-252-506q-18-6-45-6z" glyph-name="W" horiz-adv-x="955" unicode="&#x57;"/><glyph d="M674 714l-305-344 167-363q-16-7-44-7-12 0-21 1.5t-12 2.5l-3 2-101 216-42 92q-12-15-36.5-44t-27.5-32l-201-233q-18-5-47-5-19 0-42 5l320 372-153 337q16 6 45 6 12 0 20.5-1.5t11.5-2.5l3-2 99-215q3-8 14-31t17-36q34 40 52 60l197 222q16 6 49 6 24 0 40-6z" glyph-name="X" horiz-adv-x="623" unicode="&#x58;"/><glyph d="M652 720q12 0 22-1.5t14-2.5l5-2-347-411-63-297q-13-6-37-6-12 0-21 1.5t-13 2.5l-3 2 63 295-164 413q16 6 46 6 12 0 20.5-1.5t10.5-2.5l2-2 84-209 51-126q16 19 48.5 57.5t48.5 58.5l183 219q23 6 50 6z" glyph-name="Y" horiz-adv-x="622" unicode="&#x59;"/><glyph d="M611 720q3-10-1-32-4-18-13-34l-521-588h409q2-12-2-32-4-22-12-34h-492q0 24 2 34 2 8 12 32l519 588h-366q0 25 2 35 3 12 12 31h451z" glyph-name="Z" horiz-adv-x="584" unicode="&#x5a;"/><glyph d="M390 810q2-10-2-30l-10-29h-116l-184-862h116q2-10-2-29l-10-30h-185l208 980h185z" glyph-name="bracketleft" horiz-adv-x="322" unicode="&#x5b;"/><glyph d="M320-47q-11 0-20 1.5t-12 3.5l-4 1-169 785q14 6 39 6 11 0 20.5-1.5t13.5-2.5l3-2 168-785q-13-6-39-6z" glyph-name="backslash" horiz-adv-x="454" unicode="&#x5c;"/><glyph d="M148 810h184l-208-980h-184q-3 9 1 30l11 29h115l184 862h-115q-3 9 1 29z" glyph-name="bracketright" horiz-adv-x="322" unicode="&#x5d;"/><glyph d="M379 715l119-258q-10-5-31-5-9 0-16.5 1t-10.5 3l-3 1-98 212-187-212q-16-5-37-5-9 0-16.5 1t-10.5 3l-2 1 229 258q11 5 33 5 10 0 17.5-1t10.5-3z" glyph-name="asciicircum" horiz-adv-x="515" unicode="&#x5e;"/><glyph d="M-13-71q-4 7 0 26 1 5 2.5 9.5t3 7 3 4.5 2.5 3v1h417q2-7-2-25l-9-26h-417z" glyph-name="underscore" horiz-adv-x="544" unicode="&#x5f;"/><glyph d="M146 640l-95 139q11 13 31.5 21.5t38.5 7.5l73-144q-18-21-48-24z" glyph-name="grave" horiz-adv-x="238" unicode="&#x60;"/><glyph d="M488 526q11 0 19-1t11-3l2-1-110-516q-13-5-31-5l-29 5 7 64q-62-79-169-79-197 0-136 289 30 145 90 201t155 56q109 0 140-81l19 66q7 5 32 5zM407 328q11 59-16 103t-87 44q-74 0-116-47.5t-66-164.5q-25-119-4-165.5t95-46.5q61 0 107.5 45t58.5 104z" glyph-name="a" horiz-adv-x="554" unicode="&#x61;"/><glyph d="M351 536q91 0 129-69t7-214q-30-144-93-203.5t-154-59.5q-103 0-139 76l-16-61q-15-5-34-5-11 0-19.5 1t-11.5 3l-3 1 157 740q12 5 37 5 11 0 20-1t12-3l3-1-59-276q67 67 164 67zM415 263q24 115 0 163.5t-96 48.5q-60 0-103.5-43t-57.5-103l-27-125q-13-62 14.5-107.5t87.5-45.5q71 0 114 48.5t68 163.5z" glyph-name="b" horiz-adv-x="555" unicode="&#x62;"/><glyph d="M207-10q-106 0-146.5 76.5t-11.5 211.5q55 258 269 258 39 0 69-6t41-12l11-6q-6-32-31-54-34 17-90 17-79 0-127-52t-71-160q-23-107 4-158t108-51q61 0 101 19 23-21 17-53-58-30-143-30z" glyph-name="c" horiz-adv-x="443" unicode="&#x63;"/><glyph d="M533 750q11 0 20-1t12-3l3-1-157-740q-13-5-31-5l-31 5 7 60q-26-35-67.5-55t-86.5-20q-99 0-140 70.5t-10 217.5q54 258 246 258 98 0 137-75l61 284q12 5 37 5zM408 328q11 58-18.5 102.5t-90.5 44.5q-65 0-109-50t-67-162q-24-119-1-165.5t97-46.5q60 0 104.5 44.5t56.5 104.5z" glyph-name="d" horiz-adv-x="554" unicode="&#x64;"/><glyph d="M317 536q83 0 124-52.5t23-141.5q-6-28-14.5-53.5t-13.5-36.5l-5-12h-317q-16-100 12-143t103-43q34 0 66 8t47 16l16 9q23-21 17-54-7-5-21-12t-59-19-93-12q-106 0-144 76t-9 215q55 255 268 255zM397 351q11 56-10.5 91t-82.5 35q-131 0-179-183h256q7 20 16 57z" glyph-name="e" horiz-adv-x="505" unicode="&#x65;"/><glyph d="M359 756q27 0 51.5-4t35.5-8l12-5q-8-33-31-53-28 11-74 11-53 0-77.5-24t-35.5-76l-15-71h141q3-11-1-29l-11-28h-141l-99-464q-12-5-37-5-11 0-20 1t-12 3l-3 1 99 464h-68q-2 8 2 29l10 28h68l14 66q17 80 61 122t131 42z" glyph-name="f" horiz-adv-x="346" unicode="&#x66;"/><glyph d="M485 526q11 0 20-1t12-3l3-1-106-495q-30-145-94-210.5t-190-65.5q-41 0-76.5 8t-49.5 16l-15 7q8 33 32 51 51-21 115-21 88 0 134 43.5t75 171.5l9 36q-59-72-173-72-86 0-123.5 71t-6.5 217q30 145 90.5 201.5t155.5 56.5q105 0 137-80l17 65q9 5 34 5zM407 329q11 56-12.5 101t-86.5 45q-74 0-118-48t-68-164q-24-113 1.5-162.5t94.5-49.5q62 0 104.5 44.5t55.5 99.5z" glyph-name="g" horiz-adv-x="555" unicode="&#x67;"/><glyph d="M358 536q73 0 109-45.5t20-118.5l-78-367q-14-5-37-5-11 0-20 1t-12 3l-3 1 78 367q23 104-86 104-42 0-85-24.5t-74-66.5l-81-380q-13-5-37-5-11 0-20 1t-12 3l-3 1 157 740q12 5 37 5 11 0 19.5-1t11.5-3l4-1-61-281q75 72 173 72z" glyph-name="h" horiz-adv-x="550" unicode="&#x68;"/><glyph d="M190 635q-12 0-22 1.5t-14 2.5l-4 1 16 73q14 5 42 5l40-5-16-73q-15-5-42-5zM55 0q-12 0-20.5 1t-11.5 3l-3 1 110 516q11 5 37 5 11 0 19.5-1t11.5-3l4-1-110-516q-13-5-37-5z" glyph-name="i" horiz-adv-x="239" unicode="&#x69;"/><glyph d="M190 636q-12 0-22 1.5t-14 2.5l-4 2 16 73q14 5 42 5l39-5-16-73q-15-6-41-6zM-102-250q-19 0-34 2t-20 4l-6 3q-2 7 0 17 3 11 7 20.5t7 13.5l2 3q15-4 39-4 86 0 106 99l131 613q11 5 37 5 11 0 19.5-1t11.5-3l4-1-130-609q-34-162-174-162z" glyph-name="j" horiz-adv-x="239" unicode="&#x6a;"/><glyph d="M505 521l-223-248 137-267q-17-6-42-6-9 0-18 1.5t-13 2.5l-4 2-124 240h-78l-51-241q-14-5-36-5l-36 5 158 741q14 4 37 4l35-4-94-443h71l199 218q23 5 48 5z" glyph-name="k" horiz-adv-x="498" unicode="&#x6b;"/><glyph d="M57 0q-12 0-20.5 1t-11.5 3l-3 1 157 740q11 5 37 5 11 0 19.5-1t12.5-3l3-1-157-740q-13-5-37-5z" glyph-name="l" horiz-adv-x="243" unicode="&#x6c;"/><glyph d="M652 536q69 0 102-46t19-115l-79-370q-13-5-37-5-11 0-20 1t-12 3l-3 1 78 367q22 104-77 104-87 0-152-93l-80-378q-13-5-37-5-11 0-20 1t-12 3l-3 1 78 367q22 104-77 104-39 0-79.5-24.5t-70.5-66.5l-81-380q-13-5-37-5-11 0-20 1t-12 3l-3 1 110 516q12 5 37 5 11 0 19.5-1t12.5-3l3-1-13-62q74 77 163 77 106 0 123-86 81 86 180 86z" glyph-name="m" horiz-adv-x="835" unicode="&#x6d;"/><glyph d="M358 536q74 0 109.5-44t19.5-120l-78-367q-14-5-37-5-11 0-20 1t-12 3l-3 1 78 367q23 104-86 104-43 0-86-24.5t-74-67.5l-80-379q-13-5-37-5-11 0-20 1t-12 3l-3 1 110 516q12 5 37 5 11 0 19.5-1t12.5-3l3-1-13-62q79 77 172 77z" glyph-name="n" horiz-adv-x="550" unicode="&#x6e;"/><glyph d="M202-10q-103 0-142.5 72t-8.5 218q30 142 95 199t172 57q103 0 143.5-71t9.5-216q-30-142-96.5-200.5t-172.5-58.5zM216 47q69 0 114 48.5t70 167.5q24 119-1.5 167.5t-94.5 48.5-114.5-48.5-69.5-167.5q-25-119 1-167.5t95-48.5z" glyph-name="o" horiz-adv-x="539" unicode="&#x6f;"/><glyph d="M352 536q92 0 129.5-69.5t6.5-216.5q-30-144-93-202t-159-58q-49 0-84 21.5t-50 56.5l-64-302q-12-5-37-5-11 0-20 1.5t-12 2.5l-3 1 161 755q12 5 37 5 7 0 13-.5t9-1 5-1.5 3-1l1-1-10-63q64 78 167 78zM415 263q23 119 1 165.5t-97 46.5q-60 0-103.5-43t-57.5-103l-28-129q-11-52 17-100.5t82-48.5q75 0 118 47.5t68 164.5z" glyph-name="p" horiz-adv-x="556" unicode="&#x70;"/><glyph d="M483 526q11 0 20-1t13-3l3-1-161-755q-12-5-37-5-11 0-20 1.5t-12 2.5l-3 1 63 294q-32-37-69.5-53.5t-93.5-16.5q-87 0-127 69.5t-9 214.5 91.5 203.5 154.5 58.5q107 0 137-78l20 63q11 5 30 5zM406 329q11 58-17.5 102t-85.5 44q-74 0-116-47.5t-66-164.5q-24-114 1.5-163t94.5-49q58 0 101.5 42.5t58.5 100.5z" glyph-name="q" horiz-adv-x="554" unicode="&#x71;"/><glyph d="M337 535q46 0 81-24-13-35-43-58-23 17-67 17-34 0-72-27.5t-70-73.5l-77-364q-12-5-37-5-11 0-20 1t-12 3l-3 1 110 516q12 5 37 5 11 0 20-1t12-3l3-1-16-74q67 88 154 88z" glyph-name="r" horiz-adv-x="390" unicode="&#x72;"/><glyph d="M147-10q-94 0-160 34 10 41 32 56 65-27 137-27 115 0 134 89 5 24-.5 40.5t-24 28.5-33 17.5-43.5 14.5q-138 42-114 154 30 139 210 139 77 0 130-25-5-34-32-53-51 17-103 17-119 0-138-88-4-20 1.5-35.5t24.5-27 33.5-17.5 43.5-16q67-22 97.5-56.5t16.5-104.5q-31-140-212-140z" glyph-name="s" horiz-adv-x="443" unicode="&#x73;"/><glyph d="M368 526q3-10-1-28l-11-29h-143l-61-287q-17-72-3-102t71-30l60 5q3-12-1-30l-9-27q-29-8-72-8-86 0-112.5 47t-6.5 142l62 290h-78q-3 10 1 28 2 9 4.5 16t4.5 10l2 3h78l21 99q33 19 75 16l-24-115h143z" glyph-name="t" horiz-adv-x="359" unicode="&#x74;"/><glyph d="M479 526q11 0 20-1t12-3l3-1-110-516q-7-5-32-5-11 0-19.5 1t-11.5 3l-3 1 6 59q-71-74-171-74-73 0-108.5 47t-19.5 120l77 364q14 5 37 5 11 0 20-1t12-3l3-1-78-367q-23-104 87-104 40 0 83 24.5t75 66.5l81 380q13 5 37 5z" glyph-name="u" horiz-adv-x="549" unicode="&#x75;"/><glyph d="M189 0l-40 5-80 516q14 5 39 5 7 0 13-.5t9.5-1 5.5-1.5 3-1l1-1 52-342q4-24 6-50t2-39v-14h3q21 46 53 102l196 343q16 5 38 5l37-5-296-516q-18-5-42-5z" glyph-name="v" horiz-adv-x="506" unicode="&#x76;"/><glyph d="M163 0q-14 0-39 5l-50 516q11 5 35 5 11 0 19-1t10-3l3-1 36-350q5-44 1-91h3q18 47 41 91l186 350q17 5 39 5 11 0 19.5-1t11.5-3l4-1 31-348q4-45 0-93h3q15 40 43 92l183 349q13 5 34 5 10 0 18.5-1t11.5-3l4-1-270-516q-28-5-40-5-10 0-38 5l-29 307q-8 90-1 133h-3q-16-47-62-133l-165-307q-22-5-39-5z" glyph-name="w" horiz-adv-x="791" unicode="&#x77;"/><glyph d="M509 521l-231-256 129-260q-10-5-37-5-8 0-14 .5t-10 1-6.5 1.5-3.5 1l-1 1-72 148-31 63q-9-10-26.5-29.5t-26.5-29.5l-137-152q-21-5-47-5l-36 5 242 268-124 248q14 5 40 5 12 0 20.5-1t10.5-3l3-1 64-131 33-68q2 2 50 56l128 143q20 5 45 5z" glyph-name="x" horiz-adv-x="493" unicode="&#x78;"/><glyph d="M480 526q11 0 20-1t12-3l3-1-106-495q-33-155-94.5-215.5t-189.5-60.5q-41 0-76.5 8t-50.5 16l-14 7q8 33 32 51 51-21 115-21 87 0 132 44t74 171l7 31q-68-67-170-67-79 0-111.5 47t-17.5 119l78 365q14 5 37 5 11 0 20-1t12-3l3-1-78-367q-23-104 87-104 40 0 83 24.5t75 66.5l81 380q13 5 37 5z" glyph-name="y" horiz-adv-x="550" unicode="&#x79;"/><glyph d="M451 526q2-14-1-29-2-8-12-32l-369-404h284q4-10-1-31-2-8-5-15.5t-5-10.5l-2-4h-361q-3 9 2 32 4 18 11 29l368 404h-262q-3 11 1 31l12 30h340z" glyph-name="z" horiz-adv-x="456" unicode="&#x7a;"/><glyph d="M412 810q2-12-2-29-1-5-3-11t-4-11-3-7h-44q-78 0-95-77l-52-245q-13-68-56-95 30-25 16-95l-52-246q-17-77 61-77h44q2-12-2-29-3-16-10-29h-58q-64 0-90.5 35.5t-13.5 97.5l57 266q10 47-32 47h-31q-2 14 1 29 3 14 11 30h31q42 0 53 48l56 265q13 62 54.5 97.5t105.5 35.5h58z" glyph-name="braceleft" horiz-adv-x="344" unicode="&#x7b;"/><glyph d="M26-197q-12 0-20.5 1.5t-11.5 2.5l-3 1 208 977q11 5 37 5 11 0 19.5-1t12.5-3l3-1-208-977q-13-5-37-5z" glyph-name="bar" horiz-adv-x="266" unicode="&#x7c;"/><glyph d="M314 364q2-14-1-29-4-20-11-30h-30q-42 0-52-47l-57-266q-13-62-54.5-97.5t-106.5-35.5h-57q-2 14 1 28 3 15 11 30h43q78 0 95 77l52 246q14 68 55 94-29 26-15 96l52 245q17 77-61 77h-43q-2 14 1 29 3 12 11 29h57q65 0 91.5-35.5t13.5-97.5l-56-265q-11-48 31-48h30z" glyph-name="braceright" horiz-adv-x="345" unicode="&#x7d;"/><glyph d="M328 238q-33 0-74.5 25.5t-72.5 25.5q-21 0-41.5-9t-29.5-18l-10-9q-29 8-27 38 5 6 14.5 15.5t41.5 25.5 68 16q33 0 74-25.5t72-25.5q21 0 41.5 9t30.5 18l10 9q28-8 28-37-5-6-14.5-16t-42-26-68.5-16z" glyph-name="asciitilde" horiz-adv-x="532" unicode="&#x7e;"/><glyph glyph-name="uni00A0" horiz-adv-x="243" unicode="&#xa0;"/><glyph d="M152 435l-40 5 16 73q15 5 42 5 12 0 22-1t14-3l4-1-16-73q-14-5-42-5zM17-202q-13 0-22.5 1t-12.5 3l-3 1 127 539q10 5 28 5l26-5-103-539q-9-5-40-5z" glyph-name="exclamdown" horiz-adv-x="249" unicode="&#xa1;"/><glyph d="M185-108q-23 0-30 7l25 93q-89 8-121.5 77.5t-6.5 193.5 88 193 155 78l15 93q18 6 34 6 17 0 29-6l-25-92q31-1 55.5-7t33.5-11l9-5q-6-30-33-52-32 17-88 17-79 0-127-53t-71-161 4-160 108-52q26 0 51 5t38 10l12 5q18-18 12-51-44-25-120-29l-14-92q-11-7-33-7z" glyph-name="cent" horiz-adv-x="461" unicode="&#xa2;"/><glyph d="M387 691q90 0 153-30-3-36-34-54-57 22-122 22-85 0-128.5-45.5t-43.5-128.5q0-20 6-90h191q0-21-1-27-4-18-11-29h-176q1-7 1-18 0-132-117-225h306q6-6-1-33-6-26-13-33h-389l14 66q72 55 98.5 106.5t26.5 109.5v27h-83q-1 2-.5 12t1.5 16q5 24 11 28h66q-7 58-7 81 0 116 67 180.5t185 64.5z" glyph-name="sterling" horiz-adv-x="523" unicode="&#xa3;"/><glyph d="M45 39q-12 1-22 15-4 6-6 12t-2 9v3l90 74q-30 53-15 119 13 65 66 119l-59 74q4 12 19 25 8 6 15 9t10 4h3l58-73q61 40 128 40 65 0 109-41l90 74q10 0 21-13 4-6 6.5-12t2.5-9v-4l-89-74q29-53 16-119-15-66-67-120l59-73q-3-12-19-25-7-6-14-9.5t-11-3.5l-3-1-58 74q-61-40-128-40-66 0-111 40zM257 127q61 0 111 41.5t64 102.5q13 61-20 102.5t-94 41.5q-60 0-110.5-41.5t-63.5-102.5q-13-60 20-102t93-42z" glyph-name="currency" horiz-adv-x="590" unicode="&#xa4;"/><glyph d="M360 324h143q2-9-1-24-5-17-10-25h-167l-16-76h167q2-8-1-24-2-11-9-25h-167l-31-144q-11-6-35-6-10 0-18.5 1.5t-11.5 2.5l-3 2 31 144h-168q-2 11 1 26 2 12 9 23h168l16 76h-168q0 15 2 25 2 13 9 24h144l-134 354q14 6 41 6 12 0 21.5-1.5t13.5-2.5l3-2 122-326 270 327q14 5 39 5l36-5z" glyph-name="yen" horiz-adv-x="610" unicode="&#xa5;"/><glyph d="M132 335q-7 0-13.5.5t-10 1.5-6 1.5-3.5 1.5h-1l94 445q10 5 36 5 11 0 19.5-1t11.5-3l3-1-94-445q-12-5-36-5zM19-196q-7 0-13.5.5t-10 1-6 1.5-3.5 1l-1 1 97 457q10 5 36 5 11 0 19.5-1.5t11.5-2.5l3-1-97-457q-12-5-36-5z" glyph-name="brokenbar" horiz-adv-x="256" unicode="&#xa6;"/><glyph d="M163-10q-40 0-78.5 6t-56.5 12l-18 7q2 34 27 51 57-19 127-19 134 0 152 79 7 31-18 47.5t-78 32.5q-86 25-113 46-42 33-31 89 15 65 94 116-51 34-37 102 13 65 66 98t135 33q75 0 132-22 0-31-26-49-48 16-105 16-121 0-136-75-6-30 18-49t62-29.5 75-23.5 59-41.5 13-72.5q-13-63-88-111 62-38 48-108-29-135-223-135zM290 254q60 41 69 81 4 18-2 31.5t-23 23-33 15-43 13.5-42 14q-64-39-74-82-4-18 2-31.5t23-23 31.5-14.5 42.5-13q21-5 49-14z" glyph-name="section" horiz-adv-x="486" unicode="&#xa7;"/><glyph d="M122 611q-11 0-20 1.5t-12 2.5l-4 1 14 65q13 5 38 5 11 0 19.5-1t12.5-3l3-1-14-65q-13-5-37-5zM280 611q-11 0-20 1.5t-12 2.5l-4 1 14 65q13 5 38 5 11 0 19.5-1t12.5-3l3-1-14-65q-13-5-37-5z" glyph-name="dieresis" horiz-adv-x="455" unicode="&#xa8;"/><glyph d="M337-1q-153 0-226.5 98t-42.5 243q32 150 143 245.5t271 95.5q152 0 225.5-98t42.5-243q-32-153-142.5-247t-270.5-94zM347 49q131 0 228.5 83.5t123.5 207.5q27 127-32 208.5t-196 81.5q-131 0-229-83.5t-124-206.5q-28-129 32.5-210t196.5-81zM370 147q-85 0-117 51.5t-12 148.5q43 199 214 199 29 0 53.5-5.5t34.5-10.5l10-6q-4-25-26-41-35 17-75 17-62 0-99-35.5t-55-117.5q-32-151 90-151 20 0 41 3.5t33 6.5l11 4q16-12 10-40-44-23-113-23z" glyph-name="copyright" horiz-adv-x="803" unicode="&#xa9;"/><glyph d="M253 630q112 0 89-108l-46-216q-8-4-22-4l-19 4 2 37q-41-47-109-47-44 0-64 26t-10 73q20 96 136 96 42 0 74-4l7 32q15 67-53 67-20 0-42-4t-34-8l-12-3q-12 15-7 37 53 22 110 22zM271 425l6 25q-2 0-26.5 1.5t-42.5 1.5q-72 0-84-58-13-58 47-58 37 0 64 24t36 64zM47 244h233q2-22-9-43h-233q-2 23 9 43z" glyph-name="ordfeminine" horiz-adv-x="360" unicode="&#xaa;"/><glyph d="M318 464l-214-201 131-188q-13-31-35-45l-159 208q-4 11 0 30 2 9 5 17t6 11l2 4 248 209q16-13 16-45zM462 491q17-14 14-43l-194-185 118-172q-8-29-32-43l-148 192q-3 10 1 28l11 30z" glyph-name="guillemotleft" horiz-adv-x="505" unicode="&#xab;"/><glyph d="M89 439h457l-55-258q-13-7-33-7-9 0-16.5 2t-10.5 4l-3 1 42 196h-394q0 1-.5 3.5t-1.5 10.5 1 16q2 9 5.5 17t5.5 12z" glyph-name="logicalnot" horiz-adv-x="600" unicode="&#xac;"/><glyph d="M71 262q-3 10 1 28 1 8 4 15t5 10l2 3h196q2-10-1-28l-11-28h-196z" glyph-name="uni00AD" horiz-adv-x="357" unicode="&#xad;"/><glyph d="M256 260q-88 0-136 63.5t-28 157.5q20 91 88 146t166 55q90 0 137-62.5t27-158.5q-19-90-88-145.5t-166-55.5zM263 293q79 0 138 49.5t74 118.5q18 84-20 136t-116 52q-79 0-138-48.5t-74-119.5q-17-83 21.5-135.5t114.5-52.5zM221 361l-16 3 48 225h89q36 0 51.5-18t8.5-50q-11-48-57-62l38-93q-9-5-21-5l-18 3-37 92h-49l-20-92q-8-3-17-3zM264 484h54q42 0 50 37 7 40-34 40h-54z" glyph-name="registered" horiz-adv-x="534" unicode="&#xae;"/><glyph d="M28 630q-6 25 10 49h300q5-22-10-49h-300z" glyph-name="macron" horiz-adv-x="407" unicode="&#xaf;"/><glyph d="M219 499q-60 0-86 34.5t-15 83.5 52.5 86.5 99.5 37.5q57 0 82-36t15-85q-11-49-50.5-85t-97.5-36zM226 538q39 0 65 23.5t33 57.5-8.5 58-54.5 24-66-24.5-34-58.5q-7-33 9-56.5t56-23.5z" glyph-name="degree" horiz-adv-x="354" unicode="&#xb0;"/><glyph d="M455 430q2-10-2-28-1-8-3.5-15t-4.5-10l-2-3h-146l-24-115q-11-5-29-5l-27 5 24 115h-145q-2 10 1 28l11 28h145l25 116q11 4 29 4l27-4-25-116h146zM58 192h347q2-10-2-28l-10-28h-347q-3 10 1 28z" glyph-name="plusminus" horiz-adv-x="510" unicode="&#xb1;"/><glyph d="M52 640q-31 3-38 24l135 144q19 2 36-6.5t22-22.5z" glyph-name="acute" horiz-adv-x="224" unicode="&#xb4;"/><glyph d="M497 526q11 0 20-1t12-3l3-1-110-516q-12-5-37-5-11 0-20 1t-12 3l-3 1 12 59q-72-74-165-74-73 0-99 43-15-87-20.5-153.5t-3.5-89.5l2-23q-16-12-40-15.5t-40 2.5q-6 65 30 232l114 535q13 5 37 5 12 0 20.5-1t11.5-3l3-1-79-368q-21-103 88-103 44 0 86.5 27t71.5 65l81 379q12 5 37 5z" glyph-name="uni00B5" horiz-adv-x="583" unicode="&#xb5;"/><glyph d="M88-227l-29 4 133 629q-67 1-94.5 44t-15.5 102q15 60 62.5 103.5t115.5 43.5h54l-196-922q-11-4-30-4zM274-227l-28 4 195 918q10 4 30 4l29-4-195-918q-11-4-31-4z" glyph-name="paragraph" horiz-adv-x="521" unicode="&#xb6;"/><glyph d="M99 246q-11 0-20 1.5t-12 2.5l-3 2 13 65q13 5 38 5l36-5-13-65q-15-6-39-6z" glyph-name="periodcentered" horiz-adv-x="225" unicode="&#xb7;"/><glyph d="M115-217q-24 0-45.5 5.5t-30.5 11.5l-9 6q5 23 24 35 32-16 67-16 38 0 60.5 19.5t22.5 49.5q0 41-53 41h-35l-7 12 39 98 41-9-25-62q42 0 67-19.5t25-54.5q0-53-38-85t-103-32z" glyph-name="cedilla" horiz-adv-x="286" unicode="&#xb8;"/><glyph d="M185 295q-67 0-90.5 40t-5.5 128q18 87 59.5 127t107.5 40q67 0 91.5-39.5t5.5-127.5q-18-88-59.5-128t-108.5-40zM194 338q42 0 66.5 28t39.5 97q14 70 1.5 97.5t-54.5 27.5q-43 0-67-28t-39-97q-14-71-2-98t55-27zM47 201q-2 9 1 22 3 12 8 21h236q2-8-1-21-3-14-8-22h-236z" glyph-name="ordmasculine" horiz-adv-x="376" unicode="&#xba;"/><glyph d="M450 300q2-12-2-32l-11-30-250-208q-17 15-15 45l214 202-131 187q10 29 34 45zM268 268l-11-28-230-192q-14 11-14 43l195 186-119 171q13 32 32 43l148-193q3-11-1-30z" glyph-name="guillemotright" horiz-adv-x="506" unicode="&#xbb;"/><glyph d="M626 702q9 0 16-1t10-3l3-1-537-702q-12-5-31-5l-28 5 536 702q11 5 31 5zM202 626q-49-34-106-46-12 16-4 40 69 17 123 66 12 3 26 3 15 0 22-3l-71-337q-11-3-24-3-14 0-25 3l50 236q4 20 9 41zM622 343q13 0 23-4l-45-211h40q2-11 0-20-3-12-8-19h-40l-18-86q-21-3-23-3-9 0-21 3l18 86h-176q-2 6 0 16 2 9 7 16l218 218q10 4 25 4zM556 128l33 153-153-153h120z" glyph-name="onequarter" horiz-adv-x="714" unicode="&#xbc;"/><glyph d="M626 702q9 0 16-1t10-3l3-1-537-702q-12-5-31-5l-28 5 536 702q11 5 31 5zM202 626q-49-34-106-46-12 16-4 40 69 17 123 66 12 3 26 3 15 0 22-3l-71-337q-11-3-24-3-14 0-25 3l50 236q4 20 9 41zM569 348q57 0 81.5-25.5t15.5-69.5q-7-33-29.5-56.5t-50.5-37.5-56-27.5-52.5-34.5-34.5-50q0-1-1-3h171 1v-3t.5-4.5.5-6.5-1-8q-1-6-3.5-11.5t-4.5-8.5l-2-2h-217q0 18 5 41 8 38 32 65t53.5 42 58.5 28 51.5 31 27.5 43q6 25-9.5 40t-53.5 16q-47 0-72-10-11 18-4 38 40 14 93 14z" glyph-name="onehalf" horiz-adv-x="715" unicode="&#xbd;"/><glyph d="M682 702q9 0 16-1t10-3l3-1-537-702q-12-5-31-5l-28 5 536 702q11 5 31 5zM289 440q-21-99-157-99-24 0-46 4.5t-32 8.5l-9 4q4 24 21 35 31-10 73-10 87 0 100 61t-59 61h-45q-3 20 8 41h45q62 0 73 52 5 27-9.5 40.5t-48.5 13.5q-19 0-38-2t-29-4l-10-3q-10 14-4 36 39 15 93 15 56 0 81.5-23.5t16.5-66.5q-12-55-62-77 51-23 38-87zM678 343q13 0 23-4l-45-211h40q2-11 0-20-3-12-8-19h-40l-18-86q-21-3-23-3-9 0-21 3l18 86h-176q-2 6 0 16 2 9 7 16l218 218q10 4 25 4zM612 128l33 153-153-153h120z" glyph-name="threequarters" horiz-adv-x="770" unicode="&#xbe;"/><glyph d="M283 437l-39 5 15 73q15 5 41 5 12 0 22-1t14-3l4-1-15-73q-14-5-42-5zM134-170q-90 0-132 44.5t-25 121.5q10 46 31 81.5t46 56 53.5 42 53 40.5 45 51.5 29.5 74.5q10 6 29 6 8 0 15.5-1.5t10.5-2.5l3-2q-13-61-39.5-104t-56-66.5-58.5-44-53-52-33-75.5q-22-108 104-108 35 0 67 6t47 12l15 6q22-18 12-53-67-33-164-33z" glyph-name="questiondown" horiz-adv-x="420" unicode="&#xbf;"/><glyph d="M478 776q-18-21-48-24l-95 139q11 13 31.5 21.5t38.5 7.5zM451 714l114-708q-12-6-42-6-20 0-30 6l-32 191h-318l-112-191q-12-6-44-6-26 0-34 6l416 708q14 6 42 6t40-6zM395 641q-12-31-35-69l-182-313h275l-50 313q-5 36-5 69h-3z" glyph-name="Agrave" horiz-adv-x="646" unicode="&#xc0;"/><glyph d="M407 753q-31 3-38 24l135 144q19 2 36-6.5t22-22.5zM451 714l114-708q-12-6-42-6-20 0-30 6l-32 191h-318l-112-191q-12-6-44-6-26 0-34 6l416 708q14 6 42 6t40-6zM395 641q-12-31-35-69l-182-313h275l-50 313q-5 36-5 69h-3z" glyph-name="Aacute" horiz-adv-x="646" unicode="&#xc1;"/><glyph d="M313 760q-26 9-29 35l155 107q13 3 26 0l109-107q-20-29-39-33l-94 78zM411 720q28 0 40-6l114-708q-12-6-42-6-20 0-30 6l-32 191h-318l-112-191q-12-6-44-6-26 0-34 6l416 708q14 6 42 6zM395 641q-12-31-35-69l-182-313h275l-50 313q-5 36-5 69h-3z" glyph-name="Acircumflex" horiz-adv-x="646" unicode="&#xc2;"/><glyph d="M319 772q-23 12-23 34 4 5 11.5 13t31.5 21 49 13q28 0 56.5-17t46.5-17q13 0 25.5 7.5t19.5 14.5l6 7q23-10 23-34-4-5-11.5-13t-31-21-48.5-13q-29 0-56.5 17.5t-45.5 17.5q-13 0-26.5-7.5t-19.5-14.5zM411 720q28 0 40-6l114-708q-12-6-42-6-20 0-30 6l-32 191h-318l-112-191q-12-6-44-6-26 0-34 6l416 708q14 6 42 6zM395 641q-12-31-35-69l-182-313h275l-50 313q-5 36-5 69h-3z" glyph-name="Atilde" horiz-adv-x="646" unicode="&#xc3;"/><glyph d="M379 782q-13-5-37-5-11 0-20 1.5t-12 2.5l-4 1 14 65q13 5 38 5 11 0 19.5-1t12.5-3l3-1zM537 782q-13-5-37-5-11 0-20 1.5t-12 2.5l-4 1 14 65q13 5 38 5 11 0 19.5-1t12.5-3l3-1zM451 714l114-708q-12-6-42-6-20 0-30 6l-32 191h-318l-112-191q-12-6-44-6-26 0-34 6l416 708q14 6 42 6t40-6zM395 641q-12-31-35-69l-182-313h275l-50 313q-5 36-5 69h-3z" glyph-name="Adieresis" horiz-adv-x="646" unicode="&#xc4;"/><glyph d="M455 695l109-689q-13-6-41-6-7 0-12.5.5t-8.5 1.5-5 2-3 2h-1l-32 191h-318l-112-191q-20-6-44-6-11 0-19.5 1.5t-11.5 2.5l-3 2 403 687q-26 10-40.5 38t-6.5 64q11 50 50.5 76.5t88.5 26.5q47 0 75.5-29.5t17.5-80.5q-15-70-86-93zM355 791q-6-28 8-47.5t47-19.5 56 20 29 47-8.5 46-48.5 19q-33 0-55-19t-28-46zM360 572l-182-313h275l-50 313q-5 29-5 69h-3q-9-24-35-69z" glyph-name="Aring" horiz-adv-x="645" unicode="&#xc5;"/><glyph d="M869 658h-278l-56-263h228q5-31-13-62h-228l-58-271h288q7-34-13-62h-350l41 190h-251l-149-184q-18-6-46-6-26 0-38 6l585 714h351q7-28-13-62zM523 622l-293-370h213l51 235z" glyph-name="AE" horiz-adv-x="855" unicode="&#xc6;"/><glyph d="M436 730q48 0 88.5-8t56.5-16l16-9q-5-31-35-56-51 25-131 25-102 0-171-69t-105-238q-15-70-16-123t9.5-87 33-55 51.5-29.5 68-8.5 77.5 6 57.5 12l18 7q18-22 11-57-64-32-174-34l-20-49q42 0 67-19.5t25-54.5q0-53-38-85t-103-32q-24 0-45.5 6t-30.5 12l-9 5q5 23 24 35 32-16 67-16 38 0 60.5 19.5t22.5 49.5q0 41-53 41h-35l-7 12 31 77q-243 21-170 369 79 370 359 370z" glyph-name="Ccedilla" horiz-adv-x="559" unicode="&#xc7;"/><glyph d="M452 776q-18-21-48-24l-95 139q11 13 31.5 21.5t38.5 7.5zM583 720q3-13 0-30-5-20-13-32h-323l-56-263h273q3-14 0-29-4-18-13-32h-273l-58-272h333q3-14 0-30-5-19-13-32h-407l153 720h397z" glyph-name="Egrave" horiz-adv-x="556" unicode="&#xc8;"/><glyph d="M381 753q-31 3-38 24l135 144q19 2 36-6.5t22-22.5zM583 720q3-13 0-30-5-20-13-32h-323l-56-263h273q3-14 0-29-4-18-13-32h-273l-58-272h333q3-14 0-30-5-19-13-32h-407l153 720h397z" glyph-name="Eacute" horiz-adv-x="556" unicode="&#xc9;"/><glyph d="M287 760q-26 9-29 35l155 107q13 3 26 0l109-107q-20-29-39-33l-94 78zM583 720q3-13 0-30-5-20-13-32h-323l-56-263h273q3-14 0-29-4-18-13-32h-273l-58-272h333q3-14 0-30-5-19-13-32h-407l153 720h397z" glyph-name="Ecircumflex" horiz-adv-x="556" unicode="&#xca;"/><glyph d="M353 782q-13-5-37-5-11 0-20 1.5t-12 2.5l-4 1 14 65q13 5 38 5 11 0 19.5-1t12.5-3l3-1zM511 782q-13-5-37-5-11 0-20 1.5t-12 2.5l-4 1 14 65q13 5 38 5 11 0 19.5-1t12.5-3l3-1zM583 720q3-13 0-30-5-20-13-32h-323l-56-263h273q3-14 0-29-4-18-13-32h-273l-58-272h333q3-14 0-30-5-19-13-32h-407l153 720h397z" glyph-name="Edieresis" horiz-adv-x="556" unicode="&#xcb;"/><glyph d="M242 752l-95 139q11 13 31.5 21.5t38.5 7.5l73-144q-18-21-48-24zM70 0q-12 0-21 1.5t-12 2.5l-3 2 151 708q13 6 38 6 11 0 20-1.5t13-2.5l3-2-151-708q-14-6-38-6z" glyph-name="Igrave" horiz-adv-x="270" unicode="&#xcc;"/><glyph d="M219 753q-31 3-38 24l135 144q19 2 36-6.5t22-22.5zM70 0q-12 0-21 1.5t-12 2.5l-3 2 151 708q13 6 38 6 11 0 20-1.5t13-2.5l3-2-151-708q-14-6-38-6z" glyph-name="Iacute" horiz-adv-x="270" unicode="&#xcd;"/><glyph d="M277 902l109-107q-20-29-39-33l-94 78-128-80q-26 9-29 35l155 107q13 3 26 0zM185 714q13 6 38 6 11 0 20-1.5t13-2.5l3-2-151-708q-14-6-38-6-12 0-21 1.5t-12 2.5l-3 2z" glyph-name="Icircumflex" horiz-adv-x="270" unicode="&#xce;"/><glyph d="M154 777q-11 0-20 1.5t-12 2.5l-4 1 14 65q13 5 38 5 11 0 19.5-1t12.5-3l3-1-14-65q-13-5-37-5zM312 777q-11 0-20 1.5t-12 2.5l-4 1 14 65q13 5 38 5 11 0 19.5-1t12.5-3l3-1-14-65q-13-5-37-5zM70 0q-12 0-21 1.5t-12 2.5l-3 2 151 708q13 6 38 6 11 0 20-1.5t13-2.5l3-2-151-708q-14-6-38-6z" glyph-name="Idieresis" horiz-adv-x="270" unicode="&#xcf;"/><glyph d="M404 720q145 0 197.5-89t10.5-288q-41-194-126.5-268.5t-234.5-74.5h-209l70 330h-82q-2 29 11 53h82l72 337h209zM539 360q15 71 16.5 123t-8.5 85.5-34 53.5-54.5 27.5-73.5 7.5h-129l-59-274h156q2-27-11-53h-156l-57-267h129q54 0 95 13t77.5 45.5 63 91.5 45.5 147z" glyph-name="Eth" horiz-adv-x="670" unicode="&#xd0;"/><glyph d="M500 767q-29 0-56.5 17.5t-45.5 17.5q-13 0-26.5-7.5t-19.5-14.5l-7-8q-23 12-23 34 4 5 11.5 13t31.5 21 49 13q28 0 56.5-17t46.5-17q13 0 25.5 7.5t19.5 14.5l6 7q23-10 23-34-4-5-11.5-13t-31-21-48.5-13zM67 0q-10 0-18.5 1.5t-11.5 2.5l-3 2 151 708q17 6 45 6 13 0 24-1.5t15-2.5l4-2 181-503q21-60 37-120h3q6 57 26 153l100 470q12 6 37 6 11 0 19-1.5t10-2.5l3-2-151-708q-14-6-43-6-13 0-24 1.5t-15 2.5l-5 2-183 509q-10 27-18.5 55.5t-12.5 43.5l-4 16h-3q-7-59-28-157l-99-467q-12-6-36-6z" glyph-name="Ntilde" horiz-adv-x="700" unicode="&#xd1;"/><glyph d="M443 752l-95 139q11 13 31.5 21.5t38.5 7.5l73-144q-18-21-48-24zM274-10q-131 0-182.5 96t-12.5 287q38 187 125.5 272t220.5 85q130 0 183-97.5t13-287.5q-38-187-125.5-271t-221.5-84zM284 52q96 0 161.5 71t100.5 237q36 165 .5 236.5t-131.5 71.5q-95 0-161-71t-102-237q-35-165 .5-236.5t131.5-71.5z" glyph-name="Ograve" horiz-adv-x="677" unicode="&#xd2;"/><glyph d="M420 753q-31 3-38 24l135 144q19 2 36-6.5t22-22.5zM274-10q-131 0-182.5 96t-12.5 287q38 187 125.5 272t220.5 85q130 0 183-97.5t13-287.5q-38-187-125.5-271t-221.5-84zM284 52q96 0 161.5 71t100.5 237q36 165 .5 236.5t-131.5 71.5q-95 0-161-71t-102-237q-35-165 .5-236.5t131.5-71.5z" glyph-name="Oacute" horiz-adv-x="677" unicode="&#xd3;"/><glyph d="M326 760q-26 9-29 35l155 107q13 3 26 0l109-107q-20-29-39-33l-94 78zM425 730q130 0 183-97.5t13-287.5q-38-187-125.5-271t-221.5-84q-131 0-182.5 96t-12.5 287q38 187 125.5 272t220.5 85zM546 360q36 165 .5 236.5t-131.5 71.5q-95 0-161-71t-102-237q-35-165 .5-236.5t131.5-71.5 161.5 71 100.5 237z" glyph-name="Ocircumflex" horiz-adv-x="677" unicode="&#xd4;"/><glyph d="M487 767q-29 0-56.5 17.5t-45.5 17.5q-13 0-26.5-7.5t-20.5-14.5l-6-8q-23 12-23 34 4 5 11.5 13t31.5 21 49 13q28 0 56.5-17t46.5-17q13 0 25.5 7.5t18.5 14.5l7 7q23-10 23-34-4-5-11.5-13t-31-21-48.5-13zM274-10q-131 0-182.5 96t-12.5 287q38 187 125.5 272t220.5 85q130 0 183-97.5t13-287.5q-38-187-125.5-271t-221.5-84zM284 52q96 0 161.5 71t100.5 237q36 165 .5 236.5t-131.5 71.5q-95 0-161-71t-102-237q-35-165 .5-236.5t131.5-71.5z" glyph-name="Otilde" horiz-adv-x="677" unicode="&#xd5;"/><glyph d="M355 777q-11 0-20 1.5t-13 2.5l-3 1 14 65q13 5 38 5 11 0 19.5-1t11.5-3l4-1-14-65q-13-5-37-5zM513 777q-11 0-20 1.5t-13 2.5l-3 1 14 65q13 5 38 5 11 0 19.5-1t11.5-3l4-1-14-65q-13-5-37-5zM274-10q-131 0-182.5 96t-12.5 287q38 187 125.5 272t220.5 85q130 0 183-97.5t13-287.5q-38-187-125.5-271t-221.5-84zM284 52q96 0 161.5 71t100.5 237q36 165 .5 236.5t-131.5 71.5q-95 0-161-71t-102-237q-35-165 .5-236.5t131.5-71.5z" glyph-name="Odieresis" horiz-adv-x="677" unicode="&#xd6;"/><glyph d="M77 131q-11 4-20 18-5 5-8.5 11t-4.5 10v3l140 116-91 116q7 12 23 24 7 6 14 10.5t10 6.5l4 1 91-116 141 116q11-4 20-18 5-5 8.5-11t3.5-10l1-3-141-116 92-116q-7-12-23-24-7-6-14-10.5t-11-6.5l-3-1-92 116z" glyph-name="multiply" horiz-adv-x="461" unicode="&#xd7;"/><glyph d="M674 739l-75-93q64-98 21-301-38-187-125.5-271t-221.5-84q-98 0-151 53l-69-89q-31 3-48 26l85 108q-51 97-12 285 38 187 125.5 272t220.5 85q87 0 140-44l62 79q30-3 48-26zM151 360q-29-136-9-210l378 483q-36 35-106 35-95 0-161-71t-102-237zM545 360q32 152 5 225l-383-487q36-46 116-46 95 0 161 71t101 237z" glyph-name="Oslash" horiz-adv-x="676" unicode="&#xd8;"/><glyph d="M446 752l-95 139q11 13 31.5 21.5t38.5 7.5l73-144q-18-21-48-24zM279-10q-113 0-169 65.5t-32 179.5l102 479q14 6 38 6 11 0 20-1.5t12-2.5l4-2-104-490q-17-81 18-126t116-45q80 0 134.5 45t71.5 126l104 490q13 6 37 6 11 0 20-1.5t13-2.5l3-2-102-479q-25-117-100.5-181t-185.5-64z" glyph-name="Ugrave" horiz-adv-x="672" unicode="&#xd9;"/><glyph d="M423 753q-31 3-38 24l135 144q19 2 36-6.5t22-22.5zM279-10q-113 0-169 65.5t-32 179.5l102 479q14 6 38 6 11 0 20-1.5t12-2.5l4-2-104-490q-17-81 18-126t116-45q80 0 134.5 45t71.5 126l104 490q13 6 37 6 11 0 20-1.5t13-2.5l3-2-102-479q-25-117-100.5-181t-185.5-64z" glyph-name="Uacute" horiz-adv-x="672" unicode="&#xda;"/><glyph d="M329 760q-26 9-29 35l155 107q13 3 26 0l109-107q-20-29-39-33l-94 78zM631 720q11 0 20-1.5t13-2.5l3-2-102-479q-25-117-100.5-181t-185.5-64q-113 0-169 65.5t-32 179.5l102 479q14 6 38 6 11 0 20-1.5t12-2.5l4-2-104-490q-17-81 18-126t116-45q80 0 134.5 45t71.5 126l104 490q13 6 37 6z" glyph-name="Ucircumflex" horiz-adv-x="672" unicode="&#xdb;"/><glyph d="M358 777q-11 0-20 1.5t-12 2.5l-4 1 14 65q13 5 38 5 11 0 19.5-1t12.5-3l3-1-14-65q-13-5-37-5zM516 777q-11 0-20 1.5t-12 2.5l-4 1 14 65q13 5 38 5 11 0 19.5-1t12.5-3l3-1-14-65q-13-5-37-5zM279-10q-113 0-169 65.5t-32 179.5l102 479q14 6 38 6 11 0 20-1.5t12-2.5l4-2-104-490q-17-81 18-126t116-45q80 0 134.5 45t71.5 126l104 490q13 6 37 6 11 0 20-1.5t13-2.5l3-2-102-479q-25-117-100.5-181t-185.5-64z" glyph-name="Udieresis" horiz-adv-x="672" unicode="&#xdc;"/><glyph d="M395 753q-31 3-38 24l135 144q19 2 36-6.5t22-22.5zM652 720q12 0 22-1.5t14-2.5l5-2-347-411-63-297q-13-6-37-6-12 0-21 1.5t-13 2.5l-3 2 63 295-164 413q16 6 46 6 12 0 20.5-1.5t10.5-2.5l2-2 84-209 51-126q16 19 48.5 57.5t48.5 58.5l183 219q23 6 50 6z" glyph-name="Yacute" horiz-adv-x="622" unicode="&#xdd;"/><glyph d="M409 579q94 0 136-63t22-159q-20-92-84.5-142.5t-161.5-50.5h-179l-34-158q-13-6-38-6-12 0-21 1.5t-12 2.5l-3 2 151 708q12 6 38 6 12 0 21-1.5t12-2.5l3-2-29-135h179zM494 370q14 69-13 107.5t-92 38.5h-172l-62-289h172q65 0 109 38t58 105z" glyph-name="Thorn" horiz-adv-x="604" unicode="&#xde;"/><glyph d="M300-10q-31 0-56.5 4.5t-35.5 9.5l-11 4q4 35 28 54 35-13 75-13 52 0 84 22.5t40 61.5q6 28-2.5 51.5t-26 39-38 33-37.5 34.5-25 43.5-1 59.5q8 39 29 65.5t46 37.5 41 14.5 26 3.5q16 28 23 61 10 50-11.5 82.5t-79.5 32.5q-133 0-162-135l-117-551q-12-5-37-5-11 0-20 1t-12 3l-3 1 117 551q41 194 242 194 92 0 131.5-51.5t23.5-121.5q-12-50-43-100-4 0-11.5-.5t-26.5-5-34.5-12.5-31-26-20.5-42q-6-29 8.5-52t38-41.5 46.5-39 35-54.5 3-79q-29-135-195-135z" glyph-name="germandbls" horiz-adv-x="571" unicode="&#xdf;"/><glyph d="M413 626q-18-21-48-24l-95 139q11 13 31.5 21.5t38.5 7.5zM488 526q11 0 19-1t11-3l2-1-110-516q-13-5-31-5l-29 5 7 64q-62-79-169-79-197 0-136 289 30 145 90 201t155 56q109 0 140-81l19 66q7 5 32 5zM407 328q11 59-16 103t-87 44q-74 0-116-47.5t-66-164.5q-25-119-4-165.5t95-46.5q61 0 107.5 45t58.5 104z" glyph-name="agrave" horiz-adv-x="554" unicode="&#xe0;"/><glyph d="M309 602q-31 3-38 24l135 144q19 2 36-6.5t22-22.5zM488 526q11 0 19-1t11-3l2-1-110-516q-13-5-31-5l-29 5 7 64q-62-79-169-79-197 0-136 289 30 145 90 201t155 56q109 0 140-81l19 66q7 5 32 5zM407 328q11 59-16 103t-87 44q-74 0-116-47.5t-66-164.5q-25-119-4-165.5t95-46.5q61 0 107.5 45t58.5 104z" glyph-name="aacute" horiz-adv-x="554" unicode="&#xe1;"/><glyph d="M240 598q-26 9-29 35l155 107q13 3 26 0l109-107q-20-29-39-33l-94 78zM488 526q11 0 19-1t11-3l2-1-110-516q-13-5-31-5l-29 5 7 64q-62-79-169-79-197 0-136 289 30 145 90 201t155 56q109 0 140-81l19 66q7 5 32 5zM407 328q11 59-16 103t-87 44q-74 0-116-47.5t-66-164.5q-25-119-4-165.5t95-46.5q61 0 107.5 45t58.5 104z" glyph-name="acircumflex" horiz-adv-x="554" unicode="&#xe2;"/><glyph d="M251 629q-23 12-23 34 4 5 11.5 13t31.5 21 49 13q28 0 56.5-17t46.5-17q13 0 25.5 7t19.5 15l6 7q23-10 23-34-4-5-11.5-13t-31-21-48.5-13q-29 0-56.5 17.5t-45.5 17.5q-13 0-26.5-7.5t-19.5-15.5zM488 526q11 0 19-1t11-3l2-1-110-516q-13-5-31-5l-29 5 7 64q-62-79-169-79-197 0-136 289 30 145 90 201t155 56q109 0 140-81l19 66q7 5 32 5zM407 328q11 59-16 103t-87 44q-74 0-116-47.5t-66-164.5q-25-119-4-165.5t95-46.5q61 0 107.5 45t58.5 104z" glyph-name="atilde" horiz-adv-x="554" unicode="&#xe3;"/><glyph d="M313 630q-13-5-37-5-11 0-20 1.5t-12 2.5l-4 1 14 65q13 5 38 5 11 0 19.5-1t12.5-3l3-1zM471 630q-13-5-37-5-11 0-20 1.5t-12 2.5l-4 1 14 65q13 5 38 5 11 0 19.5-1t12.5-3l3-1zM488 526q11 0 19-1t11-3l2-1-110-516q-13-5-31-5l-29 5 7 64q-62-79-169-79-197 0-136 289 30 145 90 201t155 56q109 0 140-81l19 66q7 5 32 5zM407 328q11 59-16 103t-87 44q-74 0-116-47.5t-66-164.5q-25-119-4-165.5t95-46.5q61 0 107.5 45t58.5 104z" glyph-name="adieresis" horiz-adv-x="554" unicode="&#xe4;"/><glyph d="M341 583q-51 0-77 29.5t-15 80.5 51 79 88 28 77.5-28 18.5-79-51.5-80.5-91.5-29.5zM296 693q-6-28 7.5-47.5t46.5-19.5q34 0 57 20t29 47q6 28-8.5 47t-48.5 19q-33 0-55-19.5t-28-46.5zM488 526q11 0 19-1t11-3l2-1-110-516q-13-5-31-5l-29 5 7 64q-62-79-169-79-197 0-136 289 30 145 90 201t155 56q109 0 140-81l19 66q7 5 32 5zM407 328q11 59-16 103t-87 44q-74 0-116-47.5t-66-164.5q-25-119-4-165.5t95-46.5q61 0 107.5 45t58.5 104z" glyph-name="aring" horiz-adv-x="554" unicode="&#xe5;"/><glyph d="M619 536q86 0 118.5-50t12.5-142q-5-24-13-48t-13-36l-6-12h-291q-32-197 98-197 32 0 62.5 8t44.5 16l14 8q17-16 14-49-6-5-18.5-12.5t-53.5-19.5-86-12q-89 0-112 79l-18-64q-7-5-27-5-8 0-15 1t-10 3l-2 1 7 59q-30-39-66-56.5t-90-17.5q-79 0-114 71.5t-5 216.5q54 258 227 258 57 0 86.5-19t43.5-62l19 66q7 5 32 5l26-5-11-61q68 76 146 76zM602 477q-118 0-164-175h234q7 18 13 49 11 56-8 91t-75 35zM378 320q13 61-11.5 108t-78.5 47q-61 0-102.5-49t-65.5-163q-22-119-2.5-165.5t80.5-46.5q60 0 101 44t53 105z" glyph-name="ae" horiz-adv-x="790" unicode="&#xe6;"/><glyph d="M318 536q39 0 69-6t41-12l11-6q-6-32-31-54-34 17-90 17-79 0-127-52t-71-160q-23-107 4-158t108-51q61 0 101 19 23-21 17-53-58-30-143-30h-10l-21-56q107 0 89-89-20-95-137-95-24 0-45.5 6t-30.5 12l-10 5q6 24 25 35 27-16 66-16 69 0 81 54 11 51-51 51h-35l-8 11 34 88q-77 19-103.5 92t-1.5 190q55 258 269 258z" glyph-name="ccedilla" horiz-adv-x="440" unicode="&#xe7;"/><glyph d="M396 626q-18-21-48-24l-95 139q11 13 31.5 21.5t38.5 7.5zM317 536q83 0 124-52.5t23-141.5q-6-28-14.5-53.5t-13.5-36.5l-5-12h-317q-16-100 12-143t103-43q34 0 66 8t47 16l16 9q23-21 17-54-7-5-21-12t-59-19-93-12q-106 0-144 76t-9 215q55 255 268 255zM397 351q11 56-10.5 91t-82.5 35q-131 0-179-183h256q7 20 16 57z" glyph-name="egrave" horiz-adv-x="505" unicode="&#xe8;"/><glyph d="M292 602q-31 3-38 24l135 144q19 2 36-6.5t22-22.5zM317 536q83 0 124-52.5t23-141.5q-6-28-14.5-53.5t-13.5-36.5l-5-12h-317q-16-100 12-143t103-43q34 0 66 8t47 16l16 9q23-21 17-54-7-5-21-12t-59-19-93-12q-106 0-144 76t-9 215q55 255 268 255zM397 351q11 56-10.5 91t-82.5 35q-131 0-179-183h256q7 20 16 57z" glyph-name="eacute" horiz-adv-x="505" unicode="&#xe9;"/><glyph d="M375 740l109-107q-20-29-39-33l-94 78-128-80q-26 9-29 35l155 107q13 3 26 0zM317 536q83 0 124-52.5t23-141.5q-6-28-14.5-53.5t-13.5-36.5l-5-12h-317q-16-100 12-143t103-43q34 0 66 8t47 16l16 9q23-21 17-54-7-5-21-12t-59-19-93-12q-106 0-144 76t-9 215q55 255 268 255zM397 351q11 56-10.5 91t-82.5 35q-131 0-179-183h256q7 20 16 57z" glyph-name="ecircumflex" horiz-adv-x="505" unicode="&#xea;"/><glyph d="M296 630q-13-5-37-5-11 0-20 1.5t-13 2.5l-3 1 14 65q13 5 38 5 11 0 19.5-1t11.5-3l4-1zM454 630q-13-5-37-5-11 0-20 1.5t-13 2.5l-3 1 14 65q13 5 38 5 11 0 19.5-1t11.5-3l4-1zM317 536q83 0 124-52.5t23-141.5q-6-28-14.5-53.5t-13.5-36.5l-5-12h-317q-16-100 12-143t103-43q34 0 66 8t47 16l16 9q23-21 17-54-7-5-21-12t-59-19-93-12q-106 0-144 76t-9 215q55 255 268 255zM397 351q11 56-10.5 91t-82.5 35q-131 0-179-183h256q7 20 16 57z" glyph-name="edieresis" horiz-adv-x="505" unicode="&#xeb;"/><glyph d="M199 602l-95 139q11 13 31.5 21.5t38.5 7.5l73-144q-18-21-48-24zM55 0q-12 0-20.5 1t-11.5 3l-3 1 110 516q11 5 37 5 11 0 19.5-1t11.5-3l4-1-110-516q-13-5-37-5z" glyph-name="igrave" horiz-adv-x="239" unicode="&#xec;"/><glyph d="M143 602q-31 3-38 24l135 144q19 2 36-6.5t22-22.5zM55 0q-12 0-20.5 1t-11.5 3l-3 1 110 516q11 5 37 5 11 0 19.5-1t11.5-3l4-1-110-516q-13-5-37-5z" glyph-name="iacute" horiz-adv-x="239" unicode="&#xed;"/><glyph d="M226 740l109-107q-20-29-39-33l-94 78-128-80q-26 9-29 35l155 107q13 3 26 0zM130 521q11 5 37 5 11 0 19.5-1t11.5-3l4-1-110-516q-13-5-37-5-12 0-20.5 1t-11.5 3l-3 1z" glyph-name="icircumflex" horiz-adv-x="239" unicode="&#xee;"/><glyph d="M110 625q-11 0-20 1.5t-12 2.5l-4 1 14 65q13 5 38 5 11 0 19.5-1t12.5-3l3-1-14-65q-13-5-37-5zM268 625q-11 0-20 1.5t-12 2.5l-4 1 14 65q13 5 38 5 11 0 19.5-1t12.5-3l3-1-14-65q-13-5-37-5zM55 0q-12 0-20.5 1t-11.5 3l-3 1 110 516q11 5 37 5 11 0 19.5-1t11.5-3l4-1-110-516q-13-5-37-5z" glyph-name="idieresis" horiz-adv-x="239" unicode="&#xef;"/><glyph d="M427 658q117-123 66-351-37-175-105.5-246t-178.5-71q-102 0-146.5 70.5t-14.5 208.5q28 134 92.5 189.5t164.5 55.5q47 0 84.5-19.5t52.5-51.5q-1 113-74 182l-108-60q-24 15-24 39l93 52q-46 30-110 45 4 34 25 53 87-19 146-64l88 49q18-15 18-43zM401 252q24 114-4.5 159t-99.5 45q-68 0-112-45.5t-67-158.5q-24-113 2.5-159t94.5-46 115 46 71 159z" glyph-name="eth" horiz-adv-x="554" unicode="&#xf0;"/><glyph d="M242 629q-23 12-23 34 4 5 11.5 13t31.5 21 49 13q28 0 56.5-17t46.5-17q13 0 25.5 7t18.5 15l7 7q23-10 23-34-4-5-11.5-13t-31-21-48.5-13q-29 0-56.5 17.5t-45.5 17.5q-13 0-26.5-7.5t-20.5-15.5zM358 536q74 0 109.5-44t19.5-120l-78-367q-14-5-37-5-11 0-20 1t-12 3l-3 1 78 367q23 104-86 104-43 0-86-24.5t-74-67.5l-80-379q-13-5-37-5-11 0-20 1t-12 3l-3 1 110 516q12 5 37 5 11 0 19.5-1t12.5-3l3-1-13-62q79 77 172 77z" glyph-name="ntilde" horiz-adv-x="550" unicode="&#xf1;"/><glyph d="M354 602l-95 139q11 13 31.5 21.5t38.5 7.5l73-144q-18-21-48-24zM202-10q-103 0-142.5 72t-8.5 218q30 142 95 199t172 57q103 0 143.5-71t9.5-216q-30-142-96.5-200.5t-172.5-58.5zM216 47q69 0 114 48.5t70 167.5q24 119-1.5 167.5t-94.5 48.5-114.5-48.5-69.5-167.5q-25-119 1-167.5t95-48.5z" glyph-name="ograve" horiz-adv-x="539" unicode="&#xf2;"/><glyph d="M298 602q-31 3-38 24l135 144q19 2 36-6.5t22-22.5zM202-10q-103 0-142.5 72t-8.5 218q30 142 95 199t172 57q103 0 143.5-71t9.5-216q-30-142-96.5-200.5t-172.5-58.5zM216 47q69 0 114 48.5t70 167.5q24 119-1.5 167.5t-94.5 48.5-114.5-48.5-69.5-167.5q-25-119 1-167.5t95-48.5z" glyph-name="oacute" horiz-adv-x="539" unicode="&#xf3;"/><glyph d="M229 598q-26 9-29 35l155 107q13 3 26 0l109-107q-20-29-39-33l-94 78zM318 536q103 0 143.5-71t9.5-216q-30-142-96.5-200.5t-172.5-58.5q-103 0-142.5 72t-8.5 218q30 142 95 199t172 57zM400 263q24 119-1.5 167.5t-94.5 48.5-114.5-48.5-69.5-167.5q-25-119 1-167.5t95-48.5 114 48.5 70 167.5z" glyph-name="ocircumflex" horiz-adv-x="539" unicode="&#xf4;"/><glyph d="M395 624q-29 0-56.5 17.5t-45.5 17.5q-13 0-26.5-7.5t-20.5-15.5l-6-7q-23 12-23 34 4 5 11.5 13t31.5 21 49 13q28 0 56.5-17t46.5-17q13 0 25.5 7t18.5 15l7 7q23-10 23-34-4-5-11.5-13t-31-21-48.5-13zM202-10q-103 0-142.5 72t-8.5 218q30 142 95 199t172 57q103 0 143.5-71t9.5-216q-30-142-96.5-200.5t-172.5-58.5zM216 47q69 0 114 48.5t70 167.5q24 119-1.5 167.5t-94.5 48.5-114.5-48.5-69.5-167.5q-25-119 1-167.5t95-48.5z" glyph-name="otilde" horiz-adv-x="539" unicode="&#xf5;"/><glyph d="M265 625q-11 0-20 1.5t-13 2.5l-3 1 14 65q13 5 38 5 11 0 19.5-1t11.5-3l4-1-14-65q-13-5-37-5zM423 625q-11 0-20 1.5t-13 2.5l-3 1 14 65q13 5 38 5 11 0 19.5-1t11.5-3l4-1-14-65q-13-5-37-5zM202-10q-103 0-142.5 72t-8.5 218q30 142 95 199t172 57q103 0 143.5-71t9.5-216q-30-142-96.5-200.5t-172.5-58.5zM216 47q69 0 114 48.5t70 167.5q24 119-1.5 167.5t-94.5 48.5-114.5-48.5-69.5-167.5q-25-119 1-167.5t95-48.5z" glyph-name="odieresis" horiz-adv-x="539" unicode="&#xf6;"/><glyph d="M292 410q-12 0-22 1t-14 3l-4 1 16 73q14 5 42 5l40-5-16-73q-15-5-42-5zM62 262q-3 10 1 28 1 8 4 15t5 10l2 3h398q1-10-2-28l-10-28h-398zM223 87q-12 0-22 1.5t-13 2.5l-4 1 15 73q14 5 42 5l40-5-15-73q-16-5-43-5z" glyph-name="divide" horiz-adv-x="542" unicode="&#xf7;"/><glyph d="M517 548l-61-76q46-72 14-223-30-142-96.5-200.5t-172.5-58.5q-64 0-104 28l-51-63q-25 1-40 23l59 74q-48 72-15 228 30 142 95 199t172 57q67 0 108-30l51 65q26-3 41-23zM119 263q-20-100-5-151l268 341q-26 26-79 26-69 0-114.5-48.5t-69.5-167.5zM399 263q19 96 6 145l-266-338q27-23 76-23 69 0 114 48.5t70 167.5z" glyph-name="oslash" horiz-adv-x="537" unicode="&#xf8;"/><glyph d="M404 626q-18-21-48-24l-95 139q11 13 31.5 21.5t38.5 7.5zM479 526q11 0 20-1t12-3l3-1-110-516q-7-5-32-5-11 0-19.5 1t-11.5 3l-3 1 6 59q-71-74-171-74-73 0-108.5 47t-19.5 120l77 364q14 5 37 5 11 0 20-1t12-3l3-1-78-367q-23-104 87-104 40 0 83 24.5t75 66.5l81 380q13 5 37 5z" glyph-name="ugrave" horiz-adv-x="549" unicode="&#xf9;"/><glyph d="M300 602q-31 3-38 24l135 144q19 2 36-6.5t22-22.5zM479 526q11 0 20-1t12-3l3-1-110-516q-7-5-32-5-11 0-19.5 1t-11.5 3l-3 1 6 59q-71-74-171-74-73 0-108.5 47t-19.5 120l77 364q14 5 37 5 11 0 20-1t12-3l3-1-78-367q-23-104 87-104 40 0 83 24.5t75 66.5l81 380q13 5 37 5z" glyph-name="uacute" horiz-adv-x="549" unicode="&#xfa;"/><glyph d="M231 598q-26 9-29 35l155 107q13 3 26 0l109-107q-20-29-39-33l-94 78zM479 526q11 0 20-1t12-3l3-1-110-516q-7-5-32-5-11 0-19.5 1t-11.5 3l-3 1 6 59q-71-74-171-74-73 0-108.5 47t-19.5 120l77 364q14 5 37 5 11 0 20-1t12-3l3-1-78-367q-23-104 87-104 40 0 83 24.5t75 66.5l81 380q13 5 37 5z" glyph-name="ucircumflex" horiz-adv-x="549" unicode="&#xfb;"/><glyph d="M304 630q-13-5-37-5-11 0-20 1.5t-13 2.5l-3 1 14 65q13 5 38 5 11 0 19.5-1t11.5-3l4-1zM462 630q-13-5-37-5-11 0-20 1.5t-13 2.5l-3 1 14 65q13 5 38 5 11 0 19.5-1t11.5-3l4-1zM479 526q11 0 20-1t12-3l3-1-110-516q-7-5-32-5-11 0-19.5 1t-11.5 3l-3 1 6 59q-71-74-171-74-73 0-108.5 47t-19.5 120l77 364q14 5 37 5 11 0 20-1t12-3l3-1-78-367q-23-104 87-104 40 0 83 24.5t75 66.5l81 380q13 5 37 5z" glyph-name="udieresis" horiz-adv-x="549" unicode="&#xfc;"/><glyph d="M308 602q-31 3-38 24l135 144q19 2 36-6.5t22-22.5zM480 526q11 0 20-1t12-3l3-1-106-495q-33-155-94.5-215.5t-189.5-60.5q-41 0-76.5 8t-50.5 16l-14 7q8 33 32 51 51-21 115-21 87 0 132 44t74 171l7 31q-68-67-170-67-79 0-111.5 47t-17.5 119l78 365q14 5 37 5 11 0 20-1t12-3l3-1-78-367q-23-104 87-104 40 0 83 24.5t75 66.5l81 380q13 5 37 5z" glyph-name="yacute" horiz-adv-x="550" unicode="&#xfd;"/><glyph d="M356 536q192 0 132-287-30-145-91.5-202t-156.5-57q-108 0-138 78l-64-302q-12-5-37-5-11 0-20 1.5t-12 2.5l-3 1 208 979q12 5 37 5 11 0 20-1t12-3l3-1-61-287q64 78 171 78zM415 263q23 119 1 165.5t-97 46.5q-60 0-103.5-43t-57.5-103l-28-129q-12-60 13.5-104.5t85.5-44.5q75 0 118 47.5t68 164.5z" glyph-name="thorn" horiz-adv-x="556" unicode="&#xfe;"/><glyph d="M312 630q-13-5-37-5-11 0-20 1.5t-13 2.5l-3 1 14 65q13 5 38 5 11 0 19.5-1t11.5-3l4-1zM470 630q-13-5-37-5-11 0-20 1.5t-13 2.5l-3 1 14 65q13 5 38 5 11 0 19.5-1t11.5-3l4-1zM480 526q11 0 20-1t12-3l3-1-106-495q-33-155-94.5-215.5t-189.5-60.5q-41 0-76.5 8t-50.5 16l-14 7q8 33 32 51 51-21 115-21 87 0 132 44t74 171l7 31q-68-67-170-67-79 0-111.5 47t-17.5 119l78 365q14 5 37 5 11 0 20-1t12-3l3-1-78-367q-23-104 87-104 40 0 83 24.5t75 66.5l81 380q13 5 37 5z" glyph-name="ydieresis" horiz-adv-x="550" unicode="&#xff;"/><glyph d="M581 841q5-22-10-49h-286q-6 25 10 49h286zM411 720q28 0 40-6l114-708q-12-6-42-6-20 0-30 6l-32 191h-318l-112-191q-12-6-44-6-26 0-34 6l416 708q14 6 42 6zM395 641q-12-31-35-69l-182-313h275l-50 313q-5 36-5 69h-3z" glyph-name="Amacron" horiz-adv-x="646" unicode="&#x100;"/><glyph d="M484 626h-259q-3 24 10 49h259q4-29-10-49zM488 526q11 0 19-1t11-3l2-1-110-516q-13-5-31-5l-29 5 7 64q-62-79-169-79-197 0-136 289 30 145 90 201t155 56q109 0 140-81l19 66q7 5 32 5zM407 328q11 59-16 103t-87 44q-74 0-116-47.5t-66-164.5q-25-119-4-165.5t95-46.5q61 0 107.5 45t58.5 104z" glyph-name="amacron" horiz-adv-x="554" unicode="&#x101;"/><glyph d="M423 780q-42 0-74 15t-43 30l-12 15q15 27 41 36 4-4 11.5-10t33.5-16.5 56-10.5 59 9.5 43 18.5l15 9q23-9 25-36-7-7-19.5-17t-53-26.5-82.5-16.5zM411 720q28 0 40-6l114-708q-12-6-42-6-20 0-30 6l-32 191h-318l-112-191q-12-6-44-6-26 0-34 6l416 708q14 6 42 6zM395 641q-12-31-35-69l-182-313h275l-50 313q-5 36-5 69h-3z" glyph-name="Abreve" horiz-adv-x="646" unicode="&#x102;"/><glyph d="M357 620q-42 0-74 15t-43 30l-12 15q15 27 41 36 4-4 11.5-10t33.5-16.5 56-10.5 59 9.5 43 18.5l15 9q23-9 25-36-7-7-19.5-17t-53-26.5-82.5-16.5zM488 526q11 0 19-1t11-3l2-1-110-516q-13-5-31-5l-29 5 7 64q-62-79-169-79-197 0-136 289 30 145 90 201t155 56q109 0 140-81l19 66q7 5 32 5zM407 328q11 59-16 103t-87 44q-74 0-116-47.5t-66-164.5q-25-119-4-165.5t95-46.5q61 0 107.5 45t58.5 104z" glyph-name="abreve" horiz-adv-x="554" unicode="&#x103;"/><glyph d="M454-191q18 0 51 13 17-17 12-50-38-22-88-22-70 0-76 59-5 45 36 100.5t104 96.5l-32 191h-318l-112-191q-13-6-44-6-11 0-19.5 1.5t-11.5 2.5l-3 2 416 708q17 6 42 6 12 0 22-1.5t14-2.5l4-2 114-708q-41-22-94.5-80.5t-48.5-91.5q3-25 32-25zM395 641q-9-24-35-69l-182-313h275l-50 313q-5 29-5 69h-3z" glyph-name="Aogonek" horiz-adv-x="646" unicode="&#x104;"/><glyph d="M488 526q11 0 19-1t11-3l2-1-110-516-8-5q-51-34-94.5-85.5t-39.5-80.5q3-25 32-25 18 0 51 13 17-17 12-50-38-22-88-22-70 0-76 59-5 45 39 98.5t112 99.5l7 61q-62-78-169-78-197 0-136 289 30 145 90 201t155 56q109 0 140-81l19 66q7 5 32 5zM407 328q13 58-15 102.5t-88 44.5q-74 0-116-47.5t-66-164.5q-25-119-4-165.5t95-46.5q61 0 107 45t59 104z" glyph-name="aogonek" horiz-adv-x="553" unicode="&#x105;"/><glyph d="M431 753q-31 3-38 24l135 144q19 2 36-6.5t22-22.5zM279-10q-280 0-202 370 79 370 359 370 48 0 88.5-8t56.5-16l16-9q-5-31-35-56-51 25-131 25-102 0-171-69t-105-238q-15-70-16-123t9.5-87 33-55 51.5-29.5 68-8.5 77.5 6 57.5 12l18 7q18-22 11-57-69-34-186-34z" glyph-name="Cacute" horiz-adv-x="559" unicode="&#x106;"/><glyph d="M284 602q-31 3-38 24l135 144q19 2 36-6.5t22-22.5zM207-10q-106 0-146.5 76.5t-11.5 211.5q55 258 269 258 39 0 69-6t41-12l11-6q-6-32-31-54-34 17-90 17-79 0-127-52t-71-160q-23-107 4-158t108-51q61 0 101 19 23-21 17-53-58-30-143-30z" glyph-name="cacute" horiz-adv-x="443" unicode="&#x107;"/><glyph d="M337 760q-26 9-29 35l155 107q13 3 26 0l109-107q-20-29-39-33l-94 78zM77 360q79 370 359 370 48 0 88.5-8t56.5-16l16-9q-5-31-35-56-51 25-131 25-102 0-171-69t-105-238q-15-70-16-123t9.5-87 33-55 51.5-29.5 68-8.5 77.5 6 57.5 12l18 7q18-22 11-57-69-34-186-34-280 0-202 370z" glyph-name="Ccircumflex" horiz-adv-x="559" unicode="&#x108;"/><glyph d="M367 740l109-107q-20-29-39-33l-94 78-128-80q-26 9-29 35l155 107q13 3 26 0zM49 278q55 258 269 258 39 0 69-6t41-12l11-6q-6-32-31-54-34 17-90 17-79 0-127-52t-71-160q-23-107 4-158t108-51q61 0 101 19 23-21 17-53-58-30-143-30-106 0-146.5 76.5t-11.5 211.5z" glyph-name="ccircumflex" horiz-adv-x="443" unicode="&#x109;"/><glyph d="M447 776q-12 0-21 1t-12 3l-4 1 15 68q13 5 39 5 11 0 20.5-1t13.5-3l3-1-15-68q-14-5-39-5zM279-10q-280 0-202 370 79 370 359 370 48 0 88.5-8t56.5-16l16-9q-5-31-35-56-51 25-131 25-102 0-171-69t-105-238q-15-70-16-123t9.5-87 33-55 51.5-29.5 68-8.5 77.5 6 57.5 12l18 7q18-22 11-57-69-34-186-34z" glyph-name="Cdotaccent" horiz-adv-x="559" unicode="&#x10a;"/><glyph d="M328 623q-12 0-21 1.5t-13 2.5l-3 1 15 68q13 5 39 5 11 0 20.5-1.5t12.5-2.5l4-1-15-68q-14-5-39-5zM207-10q-106 0-146.5 76.5t-11.5 211.5q55 258 269 258 39 0 69-6t41-12l11-6q-6-32-31-54-34 17-90 17-79 0-127-52t-71-160q-23-107 4-158t108-51q61 0 101 19 23-21 17-53-58-30-143-30z" glyph-name="cdotaccent" horiz-adv-x="443" unicode="&#x10b;"/><glyph d="M456 763q-13-3-26 0l-109 108q13 25 37 32l95-79 127 78q25-7 31-31zM77 360q79 370 359 370 48 0 88.5-8t56.5-16l16-9q-5-31-35-56-51 25-131 25-102 0-171-69t-105-238q-15-70-16-123t9.5-87 33-55 51.5-29.5 68-8.5 77.5 6 57.5 12l18 7q18-22 11-57-69-34-186-34-280 0-202 370z" glyph-name="Ccaron" horiz-adv-x="559" unicode="&#x10c;"/><glyph d="M342 599q-13-3-26 0l-109 108q13 25 37 32l95-79 127 78q25-7 31-31zM49 278q55 258 269 258 39 0 69-6t41-12l11-6q-6-32-31-54-34 17-90 17-79 0-127-52t-71-160q-23-107 4-158t108-51q61 0 101 19 23-21 17-53-58-30-143-30-106 0-146.5 76.5t-11.5 211.5z" glyph-name="ccaron" horiz-adv-x="443" unicode="&#x10d;"/><glyph d="M403 763q-13-3-26 0l-109 108q13 25 37 32l95-79 127 78q25-7 31-31zM395 720q145 0 198.5-88.5t11.5-286.5q-41-194-127.5-269.5t-235.5-75.5h-209l153 720h209zM530 360q15 71 16.5 123t-8.5 85.5-34 53.5-54.5 27.5-73.5 7.5h-129l-127-594h129q54 0 95 13t77.5 45.5 63 91.5 45.5 147z" glyph-name="Dcaron" horiz-adv-x="662" unicode="&#x10e;"/><glyph d="M667 748q42 10 62-7-12-48-42.5-92.5t-69.5-66.5q-24 3-30 19 67 57 80 147zM496 745q12 5 37 5 11 0 20-1t12-3l3-1-157-740q-13-5-31-5l-31 5 7 60q-26-35-67.5-55t-86.5-20q-99 0-140 70.5t-10 217.5q54 258 246 258 98 0 137-75zM408 328q11 58-18.5 102.5t-90.5 44.5q-65 0-109-50t-67-162q-24-119-1-165.5t97-46.5q60 0 104.5 44.5t56.5 104.5z" glyph-name="dcaron" horiz-adv-x="567" unicode="&#x10f;"/><glyph d="M404 720q145 0 197.5-89t10.5-288q-41-194-126.5-268.5t-234.5-74.5h-209l70 330h-82q-2 29 11 53h82l72 337h209zM539 360q15 71 16.5 123t-8.5 85.5-34 53.5-54.5 27.5-73.5 7.5h-129l-59-274h156q2-27-11-53h-156l-57-267h129q54 0 95 13t77.5 45.5 63 91.5 45.5 147z" glyph-name="Dcroat" horiz-adv-x="670" unicode="&#x110;"/><glyph d="M621 668q1-8-2-24l-8-24h-71l-130-615q-13-5-31-5l-31 5 7 61q-59-76-174-76-85 0-123 71.5t-7 216.5q30 144 91.5 201t154.5 57q50 0 86.5-20.5t50.5-56.5l34 161h-114q-3 8 1 24l9 24h115l16 77q12 5 37 5 11 0 20-1t12-3l3-1-16-77h70zM407 328q11 57-17 102t-82 45q-73 0-117.5-48.5t-68.5-163.5q-24-119-1-165.5t97-46.5q60 0 104.5 44.5t56.5 104.5z" glyph-name="dcroat" horiz-adv-x="554" unicode="&#x111;"/><glyph d="M545 792h-286q-6 25 10 49h286q5-22-10-49zM583 720q3-13 0-30-5-20-13-32h-323l-56-263h273q3-14 0-29-4-18-13-32h-273l-58-272h333q3-14 0-30-5-19-13-32h-407l153 720h397z" glyph-name="Emacron" horiz-adv-x="556" unicode="&#x112;"/><glyph d="M467 626h-259q-3 24 10 49h259q4-29-10-49zM317 536q83 0 124-52.5t23-141.5q-6-28-14.5-53.5t-13.5-36.5l-5-12h-317q-16-100 12-143t103-43q34 0 66 8t47 16l16 9q23-21 17-54-7-5-21-12t-59-19-93-12q-106 0-144 76t-9 215q55 255 268 255zM397 351q11 56-10.5 91t-82.5 35q-131 0-179-183h256q7 20 16 57z" glyph-name="emacron" horiz-adv-x="505" unicode="&#x113;"/><glyph d="M397 780q-42 0-74 15t-43 30l-12 15q15 27 41 36 4-4 11.5-10t33.5-16.5 56-10.5 59 9.5 43 18.5l15 9q23-9 25-36-7-7-19.5-17t-53-26.5-82.5-16.5zM583 720q3-13 0-30-5-20-13-32h-323l-56-263h273q3-14 0-29-4-18-13-32h-273l-58-272h333q3-14 0-30-5-19-13-32h-407l153 720h397z" glyph-name="Ebreve" horiz-adv-x="556" unicode="&#x114;"/><glyph d="M340 620q-42 0-74 15t-44 30l-11 15q15 27 41 36 4-4 11.5-10t33.5-16.5 56-10.5 59 9.5 44 18.5l14 9q23-9 25-36-7-7-19.5-17t-53-26.5-82.5-16.5zM317 536q83 0 124-52.5t23-141.5q-6-28-14.5-53.5t-13.5-36.5l-5-12h-317q-16-100 12-143t103-43q34 0 66 8t47 16l16 9q23-21 17-54-7-5-21-12t-59-19-93-12q-106 0-144 76t-9 215q55 255 268 255zM397 351q11 56-10.5 91t-82.5 35q-131 0-179-183h256q7 20 16 57z" glyph-name="ebreve" horiz-adv-x="505" unicode="&#x115;"/><glyph d="M436 781q-14-5-39-5-12 0-21 1t-12 3l-4 1 15 68q13 5 39 5 11 0 20.5-1t13.5-3l3-1zM583 720q3-13 0-30-5-20-13-32h-323l-56-263h273q3-14 0-29-4-18-13-32h-273l-58-272h333q3-14 0-30-5-19-13-32h-407l153 720h397z" glyph-name="Edotaccent" horiz-adv-x="556" unicode="&#x116;"/><glyph d="M375 628q-14-5-39-5-12 0-21 1.5t-13 2.5l-3 1 15 68q13 5 39 5 11 0 20.5-1.5t12.5-2.5l4-1zM317 536q83 0 124-52.5t23-141.5q-6-28-14.5-53.5t-13.5-36.5l-5-12h-317q-16-100 12-143t103-43q34 0 66 8t47 16l16 9q23-21 17-54-7-5-21-12t-59-19-93-12q-106 0-144 76t-9 215q55 255 268 255zM397 351q11 56-10.5 91t-82.5 35q-131 0-179-183h256q7 20 16 57z" glyph-name="edotaccent" horiz-adv-x="505" unicode="&#x117;"/><glyph d="M583 720q3-13 0-30-5-20-13-32h-323l-56-263h273q3-14 0-29-4-18-13-32h-273l-58-272h333q3-14 0-30-5-19-13-32-49-30-91.5-79.5t-42.5-81.5q0-14 9.5-22t22.5-8q19 0 51 13 8-8 11.5-24.5t.5-25.5q-38-22-88-22-35 0-56 17.5t-21 51.5q0 44 39 93t98 88h-340l153 720h397z" glyph-name="Eogonek" horiz-adv-x="556" unicode="&#x118;"/><glyph d="M317 536q83 0 124-52.5t23-141.5q-6-28-14.5-53.5t-13.5-36.5l-5-12h-317q-16-100 12-143t103-43q34 0 66 8t47 16l16 9q23-21 17-54-1-1-2-1-174-129-164-198 3-25 32-25 19 0 51 13 17-17 12-50-38-22-88-22-70 0-76 59-5 44 30 94.5t93 91.5q-30-5-61-5-106 0-144 76t-9 215q54 255 268 255zM304 477q-131 0-179-183h255q8 18 17 57 11 56-10.5 91t-82.5 35z" glyph-name="eogonek" horiz-adv-x="507" unicode="&#x119;"/><glyph d="M406 763q-13-3-26 0l-109 108q13 25 37 32l95-79 127 78q25-7 31-31zM583 720q3-13 0-30-5-20-13-32h-323l-56-263h273q3-14 0-29-4-18-13-32h-273l-58-272h333q3-14 0-30-5-19-13-32h-407l153 720h397z" glyph-name="Ecaron" horiz-adv-x="556" unicode="&#x11a;"/><glyph d="M350 599q-13-3-26 0l-109 108q13 25 37 32l95-79 127 78q25-7 31-31zM317 536q83 0 124-52.5t23-141.5q-6-28-14.5-53.5t-13.5-36.5l-5-12h-317q-16-100 12-143t103-43q34 0 66 8t47 16l16 9q23-21 17-54-7-5-21-12t-59-19-93-12q-106 0-144 76t-9 215q55 255 268 255zM397 351q11 56-10.5 91t-82.5 35q-131 0-179-183h256q7 20 16 57z" glyph-name="ecaron" horiz-adv-x="505" unicode="&#x11b;"/><glyph d="M352 760q-26 9-29 35l155 107q13 3 26 0l109-107q-20-29-39-33l-94 78zM448 730q52 0 96.5-8t63.5-16l18-9q-8-35-35-55-63 24-147 24-106 0-180-69.5t-110-237.5q-16-90-14.5-148.5t27.5-93 61-48.5 86-14q57 0 118 13l55 259h-164q-3 12 1 31 2 9 5.5 17t5.5 11l2 3h235l-78-366q-81-33-203-33-142 0-198 93.5t-17 276.5q39 182 134 276t238 94z" glyph-name="Gcircumflex" horiz-adv-x="627" unicode="&#x11c;"/><glyph d="M218 598q-26 9-29 35l155 107q13 3 26 0l109-107q-20-29-39-33l-94 78zM485 526q11 0 20-1t12-3l3-1-106-495q-30-145-94-210.5t-190-65.5q-41 0-76.5 8t-49.5 16l-15 7q8 33 32 51 51-21 115-21 88 0 134 43.5t75 171.5l9 36q-59-72-173-72-86 0-123.5 71t-6.5 217q30 145 90.5 201.5t155.5 56.5q105 0 137-80l17 65q9 5 34 5zM407 329q11 56-12.5 101t-86.5 45q-74 0-118-48t-68-164q-24-113 1.5-162.5t94.5-49.5q62 0 104.5 44.5t55.5 99.5z" glyph-name="gcircumflex" horiz-adv-x="555" unicode="&#x11d;"/><glyph d="M462 780q-42 0-74 15t-44 30l-11 15q15 27 41 36 4-4 11.5-10t33.5-16.5 56-10.5 59 9.5 44 18.5l14 9q23-9 25-36-7-7-19.5-17t-53-26.5-82.5-16.5zM448 730q52 0 96.5-8t63.5-16l18-9q-8-35-35-55-63 24-147 24-106 0-180-69.5t-110-237.5q-16-90-14.5-148.5t27.5-93 61-48.5 86-14q57 0 118 13l55 259h-164q-3 12 1 31 2 9 5.5 17t5.5 11l2 3h235l-78-366q-81-33-203-33-142 0-198 93.5t-17 276.5q39 182 134 276t238 94z" glyph-name="Gbreve" horiz-adv-x="627" unicode="&#x11e;"/><glyph d="M335 620q-42 0-74 15t-43 30l-12 15q15 27 41 36 4-4 11.5-10t33.5-16.5 56-10.5 59 9.5 43 18.5l15 9q23-9 25-36-7-7-19.5-17t-53-26.5-82.5-16.5zM485 526q11 0 20-1t12-3l3-1-106-495q-30-145-94-210.5t-190-65.5q-41 0-76.5 8t-49.5 16l-15 7q8 33 32 51 51-21 115-21 88 0 134 43.5t75 171.5l9 36q-59-72-173-72-86 0-123.5 71t-6.5 217q30 145 90.5 201.5t155.5 56.5q105 0 137-80l17 65q9 5 34 5zM407 329q11 56-12.5 101t-86.5 45q-74 0-118-48t-68-164q-24-113 1.5-162.5t94.5-49.5q62 0 104.5 44.5t55.5 99.5z" glyph-name="gbreve" horiz-adv-x="555" unicode="&#x11f;"/><glyph d="M501 781q-14-5-39-5-12 0-21 1t-13 3l-3 1 15 68q13 5 39 5 11 0 20.5-1t12.5-3l4-1zM448 730q52 0 96.5-8t63.5-16l18-9q-8-35-35-55-63 24-147 24-106 0-180-69.5t-110-237.5q-16-90-14.5-148.5t27.5-93 61-48.5 86-14q57 0 118 13l55 259h-164q-3 12 1 31 2 9 5.5 17t5.5 11l2 3h235l-78-366q-81-33-203-33-142 0-198 93.5t-17 276.5q39 182 134 276t238 94z" glyph-name="Gdotaccent" horiz-adv-x="627" unicode="&#x120;"/><glyph d="M370 628q-14-5-39-5-12 0-21 1.5t-12 2.5l-4 1 15 68q13 5 39 5 11 0 20.5-1.5t13.5-2.5l3-1zM485 526q11 0 20-1t12-3l3-1-106-495q-30-145-94-210.5t-190-65.5q-41 0-76.5 8t-49.5 16l-15 7q8 33 32 51 51-21 115-21 88 0 134 43.5t75 171.5l9 36q-59-72-173-72-86 0-123.5 71t-6.5 217q30 145 90.5 201.5t155.5 56.5q105 0 137-80l17 65q9 5 34 5zM407 329q11 56-12.5 101t-86.5 45q-74 0-118-48t-68-164q-24-113 1.5-162.5t94.5-49.5q62 0 104.5 44.5t55.5 99.5z" glyph-name="gdotaccent" horiz-adv-x="555" unicode="&#x121;"/><glyph d="M448 730q52 0 96.5-8t63.5-16l18-9q-8-35-35-55-63 24-147 24-106 0-180-69.5t-110-237.5q-16-90-14.5-148.5t27.5-93 61-48.5 86-14q57 0 118 13l55 259h-164q-3 12 1 31 2 9 5.5 17t5.5 11l2 3h235l-78-366q-81-33-203-33-142 0-198 93.5t-17 276.5q39 182 134 276t238 94zM250-50q13 5 41 5l40-5-11-50q-9-41-32-76t-42-50l-18-14-24 19q38 33 55 93l-25 5z" glyph-name="uni0122" horiz-adv-x="627" unicode="&#x122;"/><glyph d="M371 611q-15-6-43-6-12 0-21.5 1.5t-12.5 3.5l-4 1 10 50q8 41 31 76t41 49l19 15 24-20q-38-32-56-93l27-4zM485 526q11 0 20-1t12-3l3-1-106-495q-30-145-94-210.5t-190-65.5q-41 0-76.5 8t-49.5 16l-15 7q8 33 32 51 51-21 115-21 88 0 134 43.5t75 171.5l9 36q-59-72-173-72-86 0-123.5 71t-6.5 217q30 145 90.5 201.5t155.5 56.5q105 0 137-80l17 65q9 5 34 5zM407 329q11 56-12.5 101t-86.5 45q-74 0-118-48t-68-164q-24-113 1.5-162.5t94.5-49.5q62 0 104.5 44.5t55.5 99.5z" glyph-name="uni0123" horiz-adv-x="555" unicode="&#x123;"/><glyph d="M338 760q-26 9-29 35l155 107q13 3 26 0l109-107q-20-29-39-33l-94 78zM635 720q11 0 20-1.5t13-2.5l3-2-151-708q-13-6-38-6-12 0-21 1.5t-12 2.5l-3 2 70 330h-338l-70-330q-14-6-38-6-12 0-21 1.5t-12 2.5l-3 2 151 708q14 6 38 6 11 0 20-1.5t13-2.5l3-2-67-312h338l67 312q14 6 38 6z" glyph-name="Hcircumflex" horiz-adv-x="682" unicode="&#x124;"/><glyph d="M110 761q-26 9-29 35l155 107q13 3 26 0l109-107q-20-29-39-33l-94 78zM358 536q73 0 109-45.5t20-118.5l-78-367q-14-5-37-5-11 0-20 1t-12 3l-3 1 78 367q23 104-86 104-42 0-85-24.5t-74-66.5l-81-380q-13-5-37-5-11 0-20 1t-12 3l-3 1 157 740q12 5 37 5 11 0 19.5-1t11.5-3l4-1-61-281q75 72 173 72z" glyph-name="hcircumflex" horiz-adv-x="550" unicode="&#x125;"/><glyph d="M728 598q3-21-10-49h-75l-116-543q-13-6-38-6-12 0-21 1.5t-12 2.5l-3 2 70 330h-338l-70-330q-14-6-38-6-12 0-21 1.5t-12 2.5l-3 2 116 543h-65q-3 26 10 49h65l25 116q14 6 38 6 11 0 20-1.5t12-2.5l4-2-25-116h338l25 116q14 6 38 6 11 0 20-1.5t12-2.5l4-2-25-116h75zM537 402l32 147h-338l-32-147h338z" glyph-name="Hbar" horiz-adv-x="699" unicode="&#x126;"/><glyph d="M359 536q73 0 109-45.5t20-118.5l-78-367q-14-5-37-5-11 0-20 1t-12 3l-3 1 78 367q23 104-86 104-42 0-85-24.5t-74-66.5l-81-380q-13-5-37-5-11 0-20 1t-12 3l-3 1 130 614h-69q-4 26 10 49h70l16 77q12 5 37 5 11 0 19.5-1t12.5-3l3-1-17-77h138q5-23-10-49h-138l-34-155q75 72 173 72z" glyph-name="hbar" horiz-adv-x="550" unicode="&#x127;"/><glyph d="M284 767q-28 0-55.5 16.5t-44.5 16.5q-13 0-25-6t-18-12l-6-7q-21 11-21 31 4 5 10.5 12.5t29.5 19.5 47 12q28 0 55-16.5t45-16.5q12 0 24.5 6.5t18.5 12.5l6 7q20-8 20-31-1-3-11.5-13t-31.5-21-43-11zM70 0q-12 0-21 1.5t-12 2.5l-3 2 151 708q13 6 38 6 11 0 20-1.5t13-2.5l3-2-151-708q-14-6-38-6z" glyph-name="Itilde" horiz-adv-x="270" unicode="&#x128;"/><glyph d="M241 624q-23 0-50 16.5t-42 16.5q-11 0-21.5-6.5t-15.5-13.5l-5-7q-19 11-23 34 29 42 70 42 23 0 50-16t42-16q11 0 21.5 7t16.5 14l5 7q17-8 21-36-24-42-69-42zM55 0q-12 0-20.5 1t-11.5 3l-3 1 110 516q11 5 37 5 11 0 19.5-1t11.5-3l4-1-110-516q-13-5-37-5z" glyph-name="itilde" horiz-adv-x="239" unicode="&#x129;"/><glyph d="M97 792q-6 25 10 49h286q5-22-10-49h-286zM70 0q-12 0-21 1.5t-12 2.5l-3 2 151 708q13 6 38 6 11 0 20-1.5t13-2.5l3-2-151-708q-14-6-38-6z" glyph-name="Imacron" horiz-adv-x="270" unicode="&#x12a;"/><glyph d="M90 626q-3 23 10 47h196q4-27-10-47h-196zM55 0q-12 0-20.5 1t-11.5 3l-3 1 110 516q11 5 37 5 11 0 19.5-1t11.5-3l4-1-110-516q-13-5-37-5z" glyph-name="imacron" horiz-adv-x="239" unicode="&#x12b;"/><glyph d="M235 780q-42 0-74 15t-43 30l-12 15q15 27 41 36 4-4 11.5-10t33.5-16.5 56-10.5 59 9.5 43 18.5l15 9q23-9 25-36-7-7-19.5-17t-53-26.5-82.5-16.5zM70 0q-12 0-21 1.5t-12 2.5l-3 2 151 708q13 6 38 6 11 0 20-1.5t13-2.5l3-2-151-708q-14-6-38-6z" glyph-name="Ibreve" horiz-adv-x="270" unicode="&#x12c;"/><glyph d="M191 620q-42 0-74 15t-43 30l-12 15q15 27 41 36 4-4 11.5-10t33.5-16.5 56-10.5 59 9.5 43 18.5l15 9q23-9 25-36-7-7-19.5-17t-53-26.5-82.5-16.5zM55 0q-12 0-20.5 1t-11.5 3l-3 1 110 516q11 5 37 5 11 0 19.5-1t11.5-3l4-1-110-516q-13-5-37-5z" glyph-name="ibreve" horiz-adv-x="239" unicode="&#x12d;"/><glyph d="M23-250q-69 0-80 58-8 45 19.5 98t78.5 94h-8l152 714q13 6 38 6 11 0 20-1.5t13-2.5l3-2-152-714q-49-43-76-87.5t-20-76.5q5-27 37-27 18 0 51 13 17-17 12-50-38-22-88-22z" glyph-name="Iogonek" horiz-adv-x="270" unicode="&#x12e;"/><glyph d="M184 606q-12 0-22 1t-14 3l-4 1 15 73q14 5 42 5l40-5-15-73q-15-5-42-5zM7-250q-69 0-80 58-8 45 20 97.5t79 94.5h-8l112 521q11 5 37 5 11 0 19.5-1t11.5-3l4-1-111-521q-49-43-76-87.5t-20-76.5q5-27 37-27 19 0 51 13 17-17 12-50-38-22-88-22z" glyph-name="iogonek" horiz-adv-x="239" unicode="&#x12f;"/><glyph d="M235 780q-12 0-22 1t-13 3l-4 1 16 72q14 5 41 5 12 0 22-1t13-3l4-1-15-72q-15-5-42-5zM70 0q-12 0-21 1.5t-12 2.5l-3 2 151 708q13 6 38 6 11 0 20-1.5t13-2.5l3-2-151-708q-14-6-38-6z" glyph-name="Idotaccent" horiz-adv-x="270" unicode="&#x130;"/><glyph d="M55 0q-12 0-20.5 1t-11.5 3l-3 1 110 516q11 5 37 5 11 0 19.5-1t11.5-3l4-1-110-516q-13-5-37-5z" glyph-name="dotlessi" horiz-adv-x="239" unicode="&#x131;"/><glyph d="M70 0q-12 0-21 1.5t-12 2.5l-3 2 151 708q13 6 38 6 11 0 20-1.5t13-2.5l3-2-151-708q-14-6-38-6zM322-10q-34 0-68 7.5t-50 14.5l-17 8q6 36 33 57 47-21 104-21 115 0 140 118l115 540q11 6 38 6 11 0 20-1.5t13-2.5l3-2-115-540q-39-184-216-184z" glyph-name="IJ" horiz-adv-x="659" unicode="&#x132;"/><glyph d="M413 636q-12 0-22 1.5t-14 2.5l-4 2 16 73q14 5 42 5l39-5-16-73q-15-6-41-6zM190 635q-12 0-22 1.5t-14 2.5l-4 1 16 73q14 5 42 5l40-5-16-73q-15-5-42-5zM55 0q-12 0-20.5 1t-11.5 3l-3 1 110 516q11 5 37 5 11 0 19.5-1t11.5-3l4-1-110-516q-13-5-37-5zM121-250q-19 0-34 2t-21 4l-5 3q-2 7 0 17 3 11 7 20.5t6 13.5l3 3q15-4 39-4 86 0 106 99l131 613q11 5 37 5 11 0 19.5-1t12.5-3l3-1-130-609q-34-162-174-162z" glyph-name="ij" horiz-adv-x="462" unicode="&#x133;"/><glyph d="M446 902l109-107q-20-29-39-33l-94 78-128-80q-26 9-29 35l155 107q13 3 26 0zM355 714q11 6 38 6 11 0 20-1.5t13-2.5l3-2-115-538q-40-186-215-186-35 0-68.5 7.5t-50.5 14.5l-16 8q6 36 32 57 47-21 104-21 115 0 140 118z" glyph-name="Jcircumflex" horiz-adv-x="435" unicode="&#x134;"/><glyph d="M226 740l109-107q-20-29-39-33l-94 78-128-80q-26 9-29 35l155 107q13 3 26 0zM130 521q11 5 37 5 11 0 19.5-1t11.5-3l4-1-130-609q-34-162-174-162-19 0-34 2t-20 4l-6 3q-2 7 0 17 3 11 7 20.5t7 13.5l2 3q15-4 39-4 86 0 106 99z" glyph-name="jcircumflex" horiz-adv-x="239" unicode="&#x135;"/><glyph d="M655 714l-317-341 195-367q-15-6-44-6l-33 6-180 337h-96l-72-337q-12-6-38-6-11 0-20 1.5t-12 2.5l-4 2 151 708q14 6 39 6 11 0 19.5-1.5t12.5-2.5l3-2-66-309h89l288 309q16 6 46 6 23 0 39-6zM227-50q13 5 41 5l40-5-11-50q-9-41-32-76t-41-50l-19-14-24 19q38 33 55 93l-25 5z" glyph-name="uni0136" horiz-adv-x="611" unicode="&#x136;"/><glyph d="M505 521l-223-248 137-267q-17-6-42-6-9 0-18 1.5t-13 2.5l-4 2-124 240h-78l-51-241q-14-5-36-5l-36 5 158 741q14 4 37 4l35-4-94-443h71l199 218q23 5 48 5zM158-46q13 5 41 5l40-5-11-50q-9-41-32-76t-42-50l-18-14-24 19q38 33 55 93l-25 5z" glyph-name="uni0137" horiz-adv-x="498" unicode="&#x137;"/><glyph d="M516 521l-232-215 145-298q-16-8-44-8-13 0-21 1.5t-10 2.5l-2 2-124 248-107-100-32-148q-17-6-36-6-23 0-36 6l110 516q15 4 38 4 25 0 34-4l-56-263 282 263q17 4 52 4 25 0 39-5z" glyph-name="kgreenlandic" horiz-adv-x="506" unicode="&#x138;"/><glyph d="M215 753q-31 3-38 24l135 144q19 2 36-6.5t22-22.5zM434 65q0-23-2-32-3-16-12-33h-387l152 714q14 6 38 6 11 0 20-1.5t13-2.5l3-2-138-649h313z" glyph-name="Lacute" horiz-adv-x="510" unicode="&#x139;"/><glyph d="M197 776q-31 3-38 24l135 144q19 2 36-6.5t22-22.5zM57 0q-12 0-20.5 1t-11.5 3l-3 1 157 740q11 5 37 5 11 0 19.5-1t12.5-3l3-1-157-740q-13-5-37-5z" glyph-name="lacute" horiz-adv-x="243" unicode="&#x13a;"/><glyph d="M434 65q0-23-2-32-3-16-12-33h-387l152 714q14 6 38 6 11 0 20-1.5t13-2.5l3-2-138-649h313zM182-50q13 5 41 5l40-5-11-50q-9-41-32-76t-42-50l-18-14-24 19q38 33 55 93l-25 5z" glyph-name="uni013B" horiz-adv-x="510" unicode="&#x13b;"/><glyph d="M57 0q-12 0-20.5 1t-11.5 3l-3 1 157 740q11 5 37 5 11 0 19.5-1t12.5-3l3-1-157-740q-13-5-37-5zM-13-236l-24 19q38 33 55 93l-25 5 16 73q13 5 41 5l40-5-11-50q-9-41-32-76t-41-50z" glyph-name="uni013C" horiz-adv-x="243" unicode="&#x13c;"/><glyph d="M351 585q-21 4-27 22 72 53 94 142 43 3 60-14-16-48-50.5-90t-76.5-60zM121 65h313q0-23-2-32-3-16-12-33h-387l152 714q14 6 38 6 11 0 20-1.5t13-2.5l3-2z" glyph-name="Lcaron" horiz-adv-x="510" unicode="&#x13d;"/><glyph d="M300 582q-24 3-30 19 68 59 80 147 43 9 62-7-12-49-42-93t-70-66zM57 0q-12 0-20.5 1t-11.5 3l-3 1 157 740q11 5 37 5 11 0 19.5-1t12.5-3l3-1-157-740q-13-5-37-5z" glyph-name="lcaron" horiz-adv-x="251" unicode="&#x13e;"/><glyph d="M434 65q0-23-2-32-3-16-12-33h-387l152 714q14 6 38 6 11 0 20-1.5t13-2.5l3-2-138-649h313zM375 302q-14-6-38-6-11 0-20 1.5t-13 2.5l-3 2 14 65q13 5 38 5l36-5z" glyph-name="Ldot" horiz-adv-x="512" unicode="&#x13f;"/><glyph d="M57 0q-12 0-20.5 1t-11.5 3l-3 1 157 740q11 5 37 5 11 0 19.5-1t12.5-3l3-1-157-740q-13-5-37-5zM281 296q-12 0-21 1.5t-12 2.5l-3 2 14 65q12 5 38 5l36-5-14-65q-14-6-38-6z" glyph-name="ldot" horiz-adv-x="318" unicode="&#x140;"/><glyph d="M448 65q0-23-2-32-3-16-12-33h-387l69 323-69-35q-18 16-16 42l97 50 71 334q14 6 38 6 11 0 20-1.5t13-2.5l3-2-62-291 119 62q18-16 16-43l-147-76-64-301h313z" glyph-name="Lslash" horiz-adv-x="523" unicode="&#x141;"/><glyph d="M331 480q3-10 3-25l-118-61-83-389q-13-5-37-5-12 0-20.5 1t-11.5 3l-3 1 74 348-85-44q-6 2-13 18-6 15-3 24l113 58 71 336q11 5 37 5 11 0 19.5-1t11.5-3l4-1-62-294 91 47q7-4 12-18z" glyph-name="lslash" horiz-adv-x="329" unicode="&#x142;"/><glyph d="M433 753q-31 3-38 24l135 144q19 2 36-6.5t22-22.5zM67 0q-10 0-18.5 1.5t-11.5 2.5l-3 2 151 708q17 6 45 6 13 0 24-1.5t15-2.5l4-2 181-503q21-60 37-120h3q6 57 26 153l100 470q12 6 37 6 11 0 19-1.5t10-2.5l3-2-151-708q-14-6-43-6-13 0-24 1.5t-15 2.5l-5 2-183 509q-10 27-18.5 55.5t-12.5 43.5l-4 16h-3q-7-59-28-157l-99-467q-12-6-36-6z" glyph-name="Nacute" horiz-adv-x="700" unicode="&#x143;"/><glyph d="M300 602q-31 3-38 24l135 144q19 2 36-6.5t22-22.5zM358 536q74 0 109.5-44t19.5-120l-78-367q-14-5-37-5-11 0-20 1t-12 3l-3 1 78 367q23 104-86 104-43 0-86-24.5t-74-67.5l-80-379q-13-5-37-5-11 0-20 1t-12 3l-3 1 110 516q12 5 37 5 11 0 19.5-1t12.5-3l3-1-13-62q79 77 172 77z" glyph-name="nacute" horiz-adv-x="550" unicode="&#x144;"/><glyph d="M67 0q-10 0-18.5 1.5t-11.5 2.5l-3 2 151 708q17 6 45 6 13 0 24-1.5t15-2.5l4-2 181-503q21-60 37-120h3q6 57 26 153l100 470q12 6 37 6 11 0 19-1.5t10-2.5l3-2-151-708q-14-6-43-6-13 0-24 1.5t-15 2.5l-5 2-183 509q-10 27-18.5 55.5t-12.5 43.5l-4 16h-3q-7-59-28-157l-99-467q-12-6-36-6zM218-240l-24 19q38 33 55 93l-25 5 16 73q13 5 41 5l40-5-11-50q-9-41-32-76t-42-50z" glyph-name="uni0145" horiz-adv-x="700" unicode="&#x145;"/><glyph d="M358 536q74 0 109.5-44t19.5-120l-78-367q-14-5-37-5-11 0-20 1t-12 3l-3 1 78 367q23 104-86 104-43 0-86-24.5t-74-67.5l-80-379q-13-5-37-5-11 0-20 1t-12 3l-3 1 110 516q12 5 37 5 11 0 19.5-1t12.5-3l3-1-13-62q79 77 172 77zM168-46q13 5 41 5l40-5-11-50q-9-41-32-76t-42-50l-18-14-24 19q38 33 55 93l-25 5z" glyph-name="uni0146" horiz-adv-x="550" unicode="&#x146;"/><glyph d="M458 763q-13-3-26 0l-109 108q13 25 37 32l95-79 127 78q25-7 31-31zM657 720q11 0 19-1.5t10-2.5l3-2-151-708q-14-6-43-6-13 0-24 1.5t-15 2.5l-5 2-183 509q-10 27-18.5 55.5t-12.5 43.5l-4 16h-3q-7-59-28-157l-99-467q-12-6-36-6-10 0-18.5 1.5t-11.5 2.5l-3 2 151 708q17 6 45 6 13 0 24-1.5t15-2.5l4-2 181-503q21-60 37-120h3q6 57 26 153l100 470q12 6 37 6z" glyph-name="Ncaron" horiz-adv-x="700" unicode="&#x147;"/><glyph d="M358 599q-13-3-26 0l-109 108q13 25 37 32l95-79 127 78q25-7 31-31zM358 536q74 0 109.5-44t19.5-120l-78-367q-14-5-37-5-11 0-20 1t-12 3l-3 1 78 367q23 104-86 104-43 0-86-24.5t-74-67.5l-80-379q-13-5-37-5-11 0-20 1t-12 3l-3 1 110 516q12 5 37 5 11 0 19.5-1t12.5-3l3-1-13-62q79 77 172 77z" glyph-name="ncaron" horiz-adv-x="550" unicode="&#x148;"/><glyph d="M167 585q-21 4-27 22 72 53 94 142 43 3 60-14-16-48-50.5-90t-76.5-60zM358 536q74 0 109.5-44t19.5-120l-78-367q-14-5-37-5-11 0-20 1t-12 3l-3 1 78 367q23 104-86 104-43 0-86-24.5t-74-67.5l-80-379q-13-5-37-5-11 0-20 1t-12 3l-3 1 110 516q12 5 37 5 11 0 19.5-1t12.5-3l3-1-13-62q79 77 172 77z" glyph-name="napostrophe" horiz-adv-x="550" unicode="&#x149;"/><glyph d="M656 720q11 0 19.5-1.5t10.5-2.5l3-2-162-762q-16-75-51-117t-105-63q-23 18-11 54 40 14 61.5 41.5t33.5 83.5l10 51q-4 1-14 4l-184 509q-10 27-18.5 54.5t-12.5 41.5l-3 14h-3q-7-54-28-152l-99-467q-12-6-36-6-11 0-19 1.5t-11 2.5l-3 2 151 708q16 6 45 6 13 0 23.5-1.5t14.5-2.5l4-2 181-503 38-116h3q8 64 26 149l100 470q12 6 36 6z" glyph-name="Eng" horiz-adv-x="700" unicode="&#x14a;"/><glyph d="M358 536q73 0 109-45t21-117l-90-422q-15-74-50.5-116.5t-105.5-63.5q-21 18-12 53 41 13 62.5 41.5t33.5 84.5l89 421q23 104-86 104-43 0-86-24.5t-74-67.5l-80-379q-13-5-37-5-11 0-20 1t-12 3l-3 1 110 516q12 5 37 5 11 0 19.5-1t12.5-3l3-1-13-62q79 77 172 77z" glyph-name="eng" horiz-adv-x="551" unicode="&#x14b;"/><glyph d="M298 792q-6 25 10 49h286q5-22-10-49h-286zM274-10q-131 0-182.5 96t-12.5 287q38 187 125.5 272t220.5 85q130 0 183-97.5t13-287.5q-38-187-125.5-271t-221.5-84zM284 52q96 0 161.5 71t100.5 237q36 165 .5 236.5t-131.5 71.5q-95 0-161-71t-102-237q-35-165 .5-236.5t131.5-71.5z" glyph-name="Omacron" horiz-adv-x="677" unicode="&#x14c;"/><glyph d="M214 626q-3 24 10 49h259q4-29-10-49h-259zM202-10q-103 0-142.5 72t-8.5 218q30 142 95 199t172 57q103 0 143.5-71t9.5-216q-30-142-96.5-200.5t-172.5-58.5zM216 47q69 0 114 48.5t70 167.5q24 119-1.5 167.5t-94.5 48.5-114.5-48.5-69.5-167.5q-25-119 1-167.5t95-48.5z" glyph-name="omacron" horiz-adv-x="539" unicode="&#x14d;"/><glyph d="M436 780q-42 0-74 15t-44 30l-11 15q15 27 41 36 4-4 11.5-10t33.5-16.5 56-10.5 59 9.5 44 18.5l14 9q23-9 25-36-7-7-19.5-17t-53-26.5-82.5-16.5zM274-10q-131 0-182.5 96t-12.5 287q38 187 125.5 272t220.5 85q130 0 183-97.5t13-287.5q-38-187-125.5-271t-221.5-84zM284 52q96 0 161.5 71t100.5 237q36 165 .5 236.5t-131.5 71.5q-95 0-161-71t-102-237q-35-165 .5-236.5t131.5-71.5z" glyph-name="Obreve" horiz-adv-x="677" unicode="&#x14e;"/><glyph d="M346 620q-42 0-74 15t-44 30l-11 15q15 27 41 36 4-4 11.5-10t33.5-16.5 56-10.5 59 9.5 44 18.5l14 9q23-9 25-36-7-7-19.5-17t-53-26.5-82.5-16.5zM202-10q-103 0-142.5 72t-8.5 218q30 142 95 199t172 57q103 0 143.5-71t9.5-216q-30-142-96.5-200.5t-172.5-58.5zM216 47q69 0 114 48.5t70 167.5q24 119-1.5 167.5t-94.5 48.5-114.5-48.5-69.5-167.5q-25-119 1-167.5t95-48.5z" glyph-name="obreve" horiz-adv-x="539" unicode="&#x14f;"/><glyph d="M341 750q-30 3-39 24l131 144q20 2 38-6.5t25-22.5zM499 750q-31 3-38 24l131 144q20 2 37.5-6.5t24.5-22.5zM274-10q-131 0-182.5 96t-12.5 287q38 187 125.5 272t220.5 85q130 0 183-97.5t13-287.5q-38-187-125.5-271t-221.5-84zM284 52q96 0 161.5 71t100.5 237q36 165 .5 236.5t-131.5 71.5q-95 0-161-71t-102-237q-35-165 .5-236.5t131.5-71.5z" glyph-name="Ohungarumlaut" horiz-adv-x="677" unicode="&#x150;"/><glyph d="M232 576q-30 3-39 24l131 144q20 2 38-6.5t25-22.5zM390 576q-31 3-38 24l131 144q20 2 37.5-6.5t24.5-22.5zM202-10q-103 0-142.5 72t-8.5 218q30 142 95 199t172 57q103 0 143.5-71t9.5-216q-30-142-96.5-200.5t-172.5-58.5zM216 47q69 0 114 48.5t70 167.5q24 119-1.5 167.5t-94.5 48.5-114.5-48.5-69.5-167.5q-25-119 1-167.5t95-48.5z" glyph-name="ohungarumlaut" horiz-adv-x="539" unicode="&#x151;"/><glyph d="M874 720q3-14-1-31-3-17-12-31h-281l-56-263h231q3-13 0-30-5-17-13-31h-231l-58-272h291q3-14 0-31-5-17-13-31h-365q-46-10-87-10-134 0-187 97.5t-13 287.5q41 187 130.5 271t226.5 84q42 0 84-10h354zM292 52q50 0 92 16l125 584q-35 16-86 16-99 0-167-71.5t-104-236.5q-35-165 3-236.5t137-71.5z" glyph-name="OE" horiz-adv-x="847" unicode="&#x152;"/><glyph d="M634 536q86 0 122-51.5t17-142.5q-6-28-14.5-53.5t-13.5-36.5l-5-12h-294q-16-102 7.5-145.5t91.5-43.5q32 0 63 8t46 16l16 8q17-15 14-49-7-5-19.5-12.5t-55.5-19.5-90-12q-116 0-135 108-67-108-186-108-209 0-149 285 30 142 95.5 201.5t169.5 59.5q60 0 93.5-26t43.5-83q68 109 183 109zM383 264q24 125 5 170t-86 45-112-48.5-70-167.5q-26-119-1.5-167.5t91.5-48.5q66 0 107 48t66 169zM706 351q12 56-7.5 91t-77.5 35q-115 0-164-183h232q9 26 17 57z" glyph-name="oe" horiz-adv-x="813" unicode="&#x153;"/><glyph d="M373 753q-31 3-38 24l135 144q19 2 36-6.5t22-22.5zM434 720q94 0 138-62t23-156q-15-72-62-120t-121-64l106-312q-16-6-44-6-12 0-21 1.5t-12 2.5l-3 2-99 304h-3-163l-65-304q-13-6-37-6-12 0-21 1.5t-12 2.5l-4 2 152 714h248zM519 515q14 67-13.5 104.5t-91.5 37.5h-167l-61-284h167q64 0 108 37.5t58 104.5z" glyph-name="Racute" horiz-adv-x="626" unicode="&#x154;"/><glyph d="M228 602q-31 3-38 24l135 144q19 2 36-6.5t22-22.5zM337 535q46 0 81-24-13-35-43-58-23 17-67 17-34 0-72-27.5t-70-73.5l-77-364q-12-5-37-5-11 0-20 1t-12 3l-3 1 110 516q12 5 37 5 11 0 20-1t12-3l3-1-16-74q67 88 154 88z" glyph-name="racute" horiz-adv-x="390" unicode="&#x155;"/><glyph d="M434 720q94 0 138-62t23-156q-15-72-62-120t-121-64l106-312q-16-6-44-6-12 0-21 1.5t-12 2.5l-3 2-99 304h-3-163l-65-304q-13-6-37-6-12 0-21 1.5t-12 2.5l-4 2 152 714h248zM519 515q14 67-13.5 104.5t-91.5 37.5h-167l-61-284h167q64 0 108 37.5t58 104.5zM207-47q13 5 41 5l40-5-11-50q-9-41-32-76t-41-49l-19-15-24 19q38 33 55 93l-25 5z" glyph-name="uni0156" horiz-adv-x="626" unicode="&#x156;"/><glyph d="M337 535q46 0 81-24-13-35-43-58-23 17-67 17-34 0-72-27.5t-70-73.5l-77-364q-12-5-37-5-11 0-20 1t-12 3l-3 1 110 516q12 5 37 5 11 0 20-1t12-3l3-1-16-74q67 88 154 88zM8-46q13 5 41 5l40-5-11-50q-9-41-32-76t-42-50l-18-14-24 19q38 33 55 93l-25 5z" glyph-name="uni0157" horiz-adv-x="390" unicode="&#x157;"/><glyph d="M398 763q-13-3-26 0l-109 108q13 25 37 32l95-79 127 78q25-7 31-31zM434 720q94 0 138-62t23-156q-15-72-62-120t-121-64l106-312q-16-6-44-6-12 0-21 1.5t-12 2.5l-3 2-99 304h-3-163l-65-304q-13-6-37-6-12 0-21 1.5t-12 2.5l-4 2 152 714h248zM519 515q14 67-13.5 104.5t-91.5 37.5h-167l-61-284h167q64 0 108 37.5t58 104.5z" glyph-name="Rcaron" horiz-adv-x="626" unicode="&#x158;"/><glyph d="M286 599q-13-3-26 0l-109 108q13 25 37 32l95-79 127 78q25-7 31-31zM183 447q67 88 154 88 46 0 81-24-13-35-43-58-23 17-67 17-34 0-72-27.5t-70-73.5l-77-364q-12-5-37-5-11 0-20 1t-12 3l-3 1 110 516q12 5 37 5 11 0 20-1t12-3l3-1z" glyph-name="rcaron" horiz-adv-x="390" unicode="&#x159;"/><glyph d="M378 753q-31 3-38 24l135 144q19 2 36-6.5t22-22.5zM198-10q-126 0-203 40 10 36 33 59 91-31 179-31 178 0 207 133 12 59-19.5 89t-98.5 51q-22 7-33.5 11t-32.5 12.5-32.5 15-28.5 17.5-25.5 21.5-18.5 25.5-13.5 31-3.5 37 5 45q38 183 275 183 98 0 183-27-6-32-32-58-71 21-154 21-86 0-137-34t-64-97q-3-13-3.5-25t3-22 6.5-18.5 12-16 14.5-13 19-12 21-10 24.5-9.5 25-8.5 28-8.5q31-10 54-21t48-29 36.5-39.5 19-54-3.5-71.5q-39-187-290-187z" glyph-name="Sacute" horiz-adv-x="567" unicode="&#x15a;"/><glyph d="M252 602q-31 3-38 24l135 144q19 2 36-6.5t22-22.5zM147-10q-94 0-160 34 10 41 32 56 65-27 137-27 115 0 134 89 5 24-.5 40.5t-24 28.5-33 17.5-43.5 14.5q-138 42-114 154 30 139 210 139 77 0 130-25-5-34-32-53-51 17-103 17-119 0-138-88-4-20 1.5-35.5t24.5-27 33.5-17.5 43.5-16q67-22 97.5-56.5t16.5-104.5q-31-140-212-140z" glyph-name="sacute" horiz-adv-x="443" unicode="&#x15b;"/><glyph d="M284 760q-26 9-29 35l155 107q13 3 26 0l109-107q-20-29-39-33l-94 78zM385 666q-86 0-137-34t-64-97q-3-13-3.5-25t3-22 6.5-18.5 12-16 14.5-13 19-12 21-10 24.5-9.5 25-8.5 28-8.5q31-10 54-21t48-29 36.5-39.5 19-54-3.5-71.5q-39-187-290-187-126 0-203 40 10 36 33 59 91-31 179-31 178 0 207 133 12 59-19.5 89t-98.5 51q-22 7-33.5 11t-32.5 12.5-32.5 15-28.5 17.5-25.5 21.5-18.5 25.5-13.5 31-3.5 37 5 45q38 183 275 183 98 0 183-27-6-32-32-58-71 21-154 21z" glyph-name="Scircumflex" horiz-adv-x="567" unicode="&#x15c;"/><glyph d="M335 740l109-107q-20-29-39-33l-94 78-128-80q-26 9-29 35l155 107q13 3 26 0zM75 397q30 139 210 139 77 0 130-25-5-34-32-53-51 17-103 17-119 0-138-88-4-20 1.5-35.5t24.5-27 33.5-17.5 43.5-16q67-22 97.5-56.5t16.5-104.5q-31-140-212-140-94 0-160 34 10 41 32 56 65-27 137-27 115 0 134 89 5 24-.5 40.5t-24 28.5-33 17.5-43.5 14.5q-138 42-114 154z" glyph-name="scircumflex" horiz-adv-x="443" unicode="&#x15d;"/><glyph d="M385 666q-86 0-137-34t-64-97q-3-13-3.5-25t3-22 6.5-18.5 12-16 14.5-13 19-12 21-10 24.5-9.5 25-8.5 28-8.5q31-10 54-21t48-29 36.5-39.5 19-54-3.5-71.5q-37-177-261-186l-20-50q42 0 67-19.5t25-54.5q0-53-38-85t-103-32q-24 0-45.5 6t-30.5 12l-9 5q5 23 24 35 32-16 67-16 38 0 60.5 19.5t22.5 49.5q0 41-53 41h-35l-7 12 30 76q-111 2-187 40 10 36 33 59 91-31 179-31 178 0 207 133 12 59-19.5 89t-98.5 51q-22 7-33.5 11t-32.5 12.5-32.5 15-28.5 17.5-25.5 21.5-18.5 25.5-13.5 31-3.5 37 5 45q38 183 275 183 98 0 183-27-6-32-32-58-71 21-154 21z" glyph-name="Scedilla" horiz-adv-x="567" unicode="&#x15e;"/><glyph d="M285 536q77 0 130-25-5-34-32-53-51 17-103 17-119 0-138-88-4-20 1.5-35.5t24.5-27 33.5-17.5 43.5-16q67-22 97.5-56.5t16.5-104.5q-29-132-189-139l-20-50q42 0 67-19.5t25-54.5q0-53-38-85t-103-32q-24 0-45.5 6t-30.5 12l-9 5q5 23 24 35 32-16 67-16 38 0 60.5 19.5t22.5 49.5q0 41-53 41h-35l-7 12 31 77q-84 5-139 33 10 41 32 56 65-27 137-27 115 0 134 89 5 24-.5 40.5t-24 28.5-33 17.5-43.5 14.5q-138 42-114 154 30 139 210 139z" glyph-name="scedilla" horiz-adv-x="443" unicode="&#x15f;"/><glyph d="M403 763q-13-3-26 0l-109 108q13 25 37 32l95-79 127 78q25-7 31-31zM385 666q-86 0-137-34t-64-97q-3-13-3.5-25t3-22 6.5-18.5 12-16 14.5-13 19-12 21-10 24.5-9.5 25-8.5 28-8.5q31-10 54-21t48-29 36.5-39.5 19-54-3.5-71.5q-39-187-290-187-126 0-203 40 10 36 33 59 91-31 179-31 178 0 207 133 12 59-19.5 89t-98.5 51q-22 7-33.5 11t-32.5 12.5-32.5 15-28.5 17.5-25.5 21.5-18.5 25.5-13.5 31-3.5 37 5 45q38 183 275 183 98 0 183-27-6-32-32-58-71 21-154 21z" glyph-name="Scaron" horiz-adv-x="567" unicode="&#x160;"/><glyph d="M310 599q-13-3-26 0l-109 108q13 25 37 32l95-79 127 78q25-7 31-31zM75 397q30 139 210 139 77 0 130-25-5-34-32-53-51 17-103 17-119 0-138-88-4-20 1.5-35.5t24.5-27 33.5-17.5 43.5-16q67-22 97.5-56.5t16.5-104.5q-31-140-212-140-94 0-160 34 10 41 32 56 65-27 137-27 115 0 134 89 5 24-.5 40.5t-24 28.5-33 17.5-43.5 14.5q-138 42-114 154z" glyph-name="scaron" horiz-adv-x="443" unicode="&#x161;"/><glyph d="M588 720q3-12-1-32-2-8-5-16.5t-6-12.5l-2-4h-195l-138-649q-5-2-14-4l-25-61q42 0 67-19.5t25-54.5q0-53-38-85t-103-32q-24 0-45.5 6t-30.5 12l-9 5q5 23 24 35 32-16 67-16 38 0 60.5 19.5t22.5 49.5q0 41-53 41h-35l-7 12 35 88-15 4 138 649h-200q-3 13 1 33 2 8 5 16t5 12l3 4h469z" glyph-name="uni0162" horiz-adv-x="532" unicode="&#x162;"/><glyph d="M368 526q3-10-1-28l-11-29h-143l-61-287q-17-72-3-102t71-30l60 5q3-12-1-30l-9-27q-29-8-72-8-14 0-20 1l-20-50q42 0 67-19.5t25-54.5q0-53-38-85t-103-32q-24 0-45.5 6t-30.5 12l-9 5q5 23 24 35 32-16 67-16 38 0 60.5 19.5t22.5 49.5q0 41-53 41h-35l-7 12 34 84q-91 30-58 181l62 290h-78q-3 10 1 28 2 9 4.5 16t4.5 10l2 3h78l21 99q33 19 75 16l-24-115h143z" glyph-name="uni0163" horiz-adv-x="359" unicode="&#x163;"/><glyph d="M366 763q-13-3-26 0l-109 108q13 25 37 32l95-79 127 78q25-7 31-31zM588 720q3-12-1-32-2-8-5-16.5t-6-12.5l-2-4h-195l-138-649q-14-6-38-6-12 0-21 1.5t-12 2.5l-3 2 138 649h-200q-3 13 1 33 2 8 5 16t5 12l3 4h469z" glyph-name="Tcaron" horiz-adv-x="532" unicode="&#x164;"/><glyph d="M421 749q43 3 60-14-16-48-50.5-90t-76.5-60q-21 4-27 22 72 53 94 142zM225 526h143q3-10-1-28l-11-29h-143l-61-287q-17-72-3-102t71-30l60 5q3-12-1-30l-9-27q-29-8-72-8-86 0-112.5 47t-6.5 142l62 290h-78q-3 10 1 28 2 9 4.5 16t4.5 10l2 3h78l21 99q33 19 75 16z" glyph-name="tcaron" horiz-adv-x="359" unicode="&#x165;"/><glyph d="M594 720q3-12-1-32-2-8-5-16.5t-6-12.5l-2-4h-195l-61-287h131q3-20-10-49h-131l-67-313q-14-6-38-6-12 0-21 1.5t-12 2.5l-3 2 67 313h-124q-1 24 10 49h124l61 287h-200q-3 13 1 33 2 8 5 16t5 12l3 4h469z" glyph-name="Tbar" horiz-adv-x="548" unicode="&#x166;"/><glyph d="M370 526q3-10-1-28l-11-29h-143l-34-161h106q3-21-10-48h-107l-16-78q-17-72-3-102t71-30l60 5q3-12-1-30l-9-27q-29-8-72-8-86 0-112.5 47t-6.5 142l17 81h-67q0 27 10 48h67l35 161h-78q-3 10 1 28 2 9 4.5 16t4.5 10l2 3h78l21 99q33 19 75 16l-24-115h143z" glyph-name="tbar" horiz-adv-x="361" unicode="&#x167;"/><glyph d="M490 767q-29 0-56.5 17.5t-45.5 17.5q-13 0-26.5-7.5t-19.5-14.5l-7-8q-23 12-23 34 4 5 11.5 13t31.5 21 49 13q28 0 56.5-17t46.5-17q13 0 25.5 7.5t19.5 14.5l6 7q23-10 23-34-4-5-11.5-13t-31-21-48.5-13zM279-10q-113 0-169 65.5t-32 179.5l102 479q14 6 38 6 11 0 20-1.5t12-2.5l4-2-104-490q-17-81 18-126t116-45q80 0 134.5 45t71.5 126l104 490q13 6 37 6 11 0 20-1.5t13-2.5l3-2-102-479q-25-117-100.5-181t-185.5-64z" glyph-name="Utilde" horiz-adv-x="672" unicode="&#x168;"/><glyph d="M242 629q-23 12-23 34 4 5 11.5 13t31.5 21 49 13q28 0 56.5-17t46.5-17q13 0 25.5 7t18.5 15l7 7q23-10 23-34-4-5-11.5-13t-31-21-48.5-13q-29 0-56.5 17.5t-45.5 17.5q-13 0-26.5-7.5t-20.5-15.5zM479 526q11 0 20-1t12-3l3-1-110-516q-7-5-32-5-11 0-19.5 1t-11.5 3l-3 1 6 59q-71-74-171-74-73 0-108.5 47t-19.5 120l77 364q14 5 37 5 11 0 20-1t12-3l3-1-78-367q-23-104 87-104 40 0 83 24.5t75 66.5l81 380q13 5 37 5z" glyph-name="utilde" horiz-adv-x="549" unicode="&#x169;"/><glyph d="M301 792q-6 25 10 49h286q5-22-10-49h-286zM279-10q-113 0-169 65.5t-32 179.5l102 479q14 6 38 6 11 0 20-1.5t12-2.5l4-2-104-490q-17-81 18-126t116-45q80 0 134.5 45t71.5 126l104 490q13 6 37 6 11 0 20-1.5t13-2.5l3-2-102-479q-25-117-100.5-181t-185.5-64z" glyph-name="Umacron" horiz-adv-x="672" unicode="&#x16a;"/><glyph d="M475 626h-259q-3 24 10 49h259q4-29-10-49zM479 526q11 0 20-1t12-3l3-1-110-516q-7-5-32-5-11 0-19.5 1t-11.5 3l-3 1 6 59q-71-74-171-74-73 0-108.5 47t-19.5 120l77 364q14 5 37 5 11 0 20-1t12-3l3-1-78-367q-23-104 87-104 40 0 83 24.5t75 66.5l81 380q13 5 37 5z" glyph-name="umacron" horiz-adv-x="549" unicode="&#x16b;"/><glyph d="M439 780q-42 0-74 15t-43 30l-12 15q15 27 41 36 4-4 11.5-10t33.5-16.5 56-10.5 59 9.5 43 18.5l15 9q23-9 25-36-7-7-19.5-17t-53-26.5-82.5-16.5zM279-10q-113 0-169 65.5t-32 179.5l102 479q14 6 38 6 11 0 20-1.5t12-2.5l4-2-104-490q-17-81 18-126t116-45q80 0 134.5 45t71.5 126l104 490q13 6 37 6 11 0 20-1.5t13-2.5l3-2-102-479q-25-117-100.5-181t-185.5-64z" glyph-name="Ubreve" horiz-adv-x="672" unicode="&#x16c;"/><glyph d="M348 620q-42 0-74 15t-44 30l-11 15q15 27 41 36 4-4 11.5-10t33.5-16.5 56-10.5 59 9.5 44 18.5l14 9q23-9 25-36-7-7-19.5-17t-53-26.5-82.5-16.5zM479 526q11 0 20-1t12-3l3-1-110-516q-7-5-32-5-11 0-19.5 1t-11.5 3l-3 1 6 59q-71-74-171-74-73 0-108.5 47t-19.5 120l77 364q14 5 37 5 11 0 20-1t12-3l3-1-78-367q-23-104 87-104 40 0 83 24.5t75 66.5l81 380q13 5 37 5z" glyph-name="ubreve" horiz-adv-x="549" unicode="&#x16d;"/><glyph d="M434 761q-51 0-77 29.5t-15 80.5 51 79 88 28 77.5-28 18.5-79-51.5-80.5-91.5-29.5zM443 804q34 0 57 20t29 47q6 28-8.5 47t-48.5 19q-33 0-55-19.5t-28-46.5q-6-28 7.5-47.5t46.5-19.5zM279-10q-113 0-169 65.5t-32 179.5l102 479q14 6 38 6 11 0 20-1.5t12-2.5l4-2-104-490q-17-81 18-126t116-45q80 0 134.5 45t71.5 126l104 490q13 6 37 6 11 0 20-1.5t13-2.5l3-2-102-479q-25-117-100.5-181t-185.5-64z" glyph-name="Uring" horiz-adv-x="672" unicode="&#x16e;"/><glyph d="M332 583q-51 0-77 29.5t-15 80.5 51 79 88 28 77.5-28 18.5-79-51.5-80.5-91.5-29.5zM287 693q-6-28 7.5-47.5t46.5-19.5q34 0 57 20t29 47q6 28-8.5 47t-48.5 19q-33 0-55-19.5t-28-46.5zM479 526q11 0 20-1t12-3l3-1-110-516q-7-5-32-5-11 0-19.5 1t-11.5 3l-3 1 6 59q-71-74-171-74-73 0-108.5 47t-19.5 120l77 364q14 5 37 5 11 0 20-1t12-3l3-1-78-367q-23-104 87-104 40 0 83 24.5t75 66.5l81 380q13 5 37 5z" glyph-name="uring" horiz-adv-x="549" unicode="&#x16f;"/><glyph d="M344 750q-30 3-39 24l131 144q20 2 38-6.5t25-22.5zM502 750q-31 3-38 24l131 144q20 2 37.5-6.5t24.5-22.5zM279-10q-113 0-169 65.5t-32 179.5l102 479q14 6 38 6 11 0 20-1.5t12-2.5l4-2-104-490q-17-81 18-126t116-45q80 0 134.5 45t71.5 126l104 490q13 6 37 6 11 0 20-1.5t13-2.5l3-2-102-479q-25-117-100.5-181t-185.5-64z" glyph-name="Uhungarumlaut" horiz-adv-x="672" unicode="&#x170;"/><glyph d="M234 576q-30 3-39 24l131 144q20 2 38-6.5t25-22.5zM392 576q-31 3-38 24l131 144q20 2 37.5-6.5t24.5-22.5zM442 521q13 5 37 5 11 0 20-1t12-3l3-1-110-516q-7-5-32-5-11 0-19.5 1t-11.5 3l-3 1 6 59q-71-74-171-74-73 0-108.5 47t-19.5 120l77 364q14 5 37 5 11 0 20-1t12-3l3-1-78-367q-23-104 87-104 40 0 83 24.5t75 66.5z" glyph-name="uhungarumlaut" horiz-adv-x="549" unicode="&#x171;"/><glyph d="M291-250q-70 0-76 59-4 38 23.5 87.5t78.5 95.5q-24-2-38-2-113 0-169 65.5t-32 179.5l102 479q14 6 38 6 11 0 20-1.5t12-2.5l4-2-104-490q-17-81 18-126t116-45q80 0 134.5 45t71.5 126l104 490q13 6 37 6 11 0 20-1.5t13-2.5l3-2-102-479q-30-141-132-204-68-53-110.5-109t-38.5-88q3-25 32-25 18 0 51 13 17-17 12-50-38-22-88-22z" glyph-name="Uogonek" horiz-adv-x="672" unicode="&#x172;"/><glyph d="M479 526q11 0 20-1t12-3l3-1-110-516-2-1q-62-39-103.5-88.5t-37.5-81.5q3-25 32-25 18 0 51 13 17-17 12-50-38-22-88-22-70 0-76 59-5 45 38.5 100t107.5 96l6 59q-71-74-171-74-73 0-108.5 47t-19.5 120l77 364q14 5 37 5 11 0 20-1t12-3l3-1-78-367q-23-104 87-104 40 0 83 24.5t75 66.5l81 380q13 5 37 5z" glyph-name="uogonek" horiz-adv-x="550" unicode="&#x173;"/></font>
</defs>
</svg>
